<?xml version="1.0" encoding="UTF-8"?>
<svg id="Layer_1" data-name="Layer 1" xmlns="http://www.w3.org/2000/svg" viewBox="0 0 639.33 100.1">
  <defs>
    <style>
      .cls-1 {
        fill: #2d2047;
      }
    </style>
  </defs>
  <path class="cls-1" d="m60.2,4.2l35.6,35.6c5.6,5.6,5.6,14.7,0,20.3l-35.6,35.8c-5.6,5.6-14.7,5.6-20.3,0L4.2,60.2c-5.6-5.6-5.6-14.7,0-20.3L39.9,4.2c5.6-5.6,14.7-5.6,20.3,0Zm-12.5,9l-.1.1L13.4,47.5c-1.4,1.4-1.4,3.5-.1,4.9l.1.1,34.1,34.1c1.4,1.4,3.5,1.4,4.9.1l.1-.1,34.1-34.1c1.4-1.4,1.4-3.7,0-5.1L52.6,13.4c-1.3-1.4-3.5-1.4-4.9-.2Zm3,15.1l21.1,21.1c.4.4.4.9,0,1.3l-21.1,21.1c-.4.4-.9.4-1.3,0l-21.1-21.1c-.4-.4-.4-.9,0-1.3l21.1-21.1c.4-.4.9-.4,1.3,0Z"/>
  <path class="cls-1" d="m146.3,12.4l-28.6,75.4h13.3l6.4-17.2h32.6l6.5,17.2h13.5l-28.6-75.4s-15.1,0-15.1,0Zm7.3,14.9l12,31.5h-23.7l11.7-31.5Z"/>
  <path class="cls-1" d="m239.7,77.1h-29.1l28.8-34.9v-9.6h-44.2v10.7h29.2l-29.6,35v9.4h44.9v-10.6h0Z"/>
  <path class="cls-1" d="m252.3,73.9c0,11.2,5.7,14.5,16.2,14.5,3.3,0,6.4-.3,8.7-.7v-10.6c-1.9.2-3,.3-5.1.3-4.5,0-7.3-.5-7.3-5.5v-28.5h11.5v-10.7h-11.5v-16.2h-12.4v16.2h-7.7v10.7h7.7v30.5h-.1Z"/>
  <path class="cls-1" d="m308.9,88.9c11,0,19.7-5.8,23.6-15.4l-10.8-4.1c-1.7,5.7-6.6,8.8-12.8,8.8-8.1,0-13.8-5.8-14.7-15.2h38.6v-4.2c0-15.1-8.5-27.2-24.5-27.2s-26.2,12.5-26.2,28.7c0,17,11.1,28.6,26.8,28.6Zm-.6-46.7c8,0,11.8,5.2,11.9,11.3h-25.3c1.8-7.4,6.9-11.3,13.4-11.3Z"/>
  <path class="cls-1" d="m351.4,60.3c0-11.2,5.9-17.8,14.5-17.8,6.7,0,10.8,4.5,12.4,10.5l10.6-5.8c-2.9-8.8-11.1-15.5-23-15.5-15.7,0-27.1,11.7-27.1,28.7s11.3,28.7,27.1,28.7c12,0,20.4-7,23.2-16l-10.8-5.5c-1.6,6.1-5.7,10.5-12.4,10.5-8.6-.1-14.5-6.6-14.5-17.8Z"/>
  <g>
    <path class="cls-1" d="m468.84,88.2h-49.16V12.45h13.5v63.93h35.66v11.82Z"/>
    <path class="cls-1" d="m509.25,82.92c-1.76,1.97-4.06,3.5-6.91,4.59s-6.03,1.63-9.55,1.63c-5.42,0-9.88-1.53-13.4-4.59-3.52-3.06-5.27-6.98-5.27-11.76s1.51-8.28,4.54-11.13c3.02-2.85,7.7-4.94,14.03-6.28l15.3-3.17v-.95c0-2.81-.79-4.94-2.37-6.38-1.58-1.44-3.96-2.16-7.12-2.16-2.88,0-5.19.65-6.91,1.95-1.72,1.3-2.97,3.36-3.75,6.17l-11.92-2.74c1.48-4.99,4.27-8.97,8.39-11.92s9.02-4.43,14.72-4.43c6.89,0,12.17,1.63,15.83,4.91,3.66,3.27,5.49,8,5.49,14.19v23.84c0,1.55.37,2.6,1.11,3.17.74.56,1.99.74,3.75.53v9.81c-4.5.49-8.04.32-10.6-.53-2.57-.84-4.34-2.43-5.33-4.75Zm-14.56-3.9c3.8,0,6.96-.95,9.5-2.85,2.53-1.9,3.8-4.39,3.8-7.49v-6.75l-11.92,2.53c-3.45.77-5.87,1.76-7.28,2.95-1.41,1.2-2.11,2.81-2.11,4.85s.72,3.76,2.16,4.96c1.44,1.2,3.39,1.79,5.86,1.79Z"/>
    <path class="cls-1" d="m580.99,80.5c-2.18,2.88-4.84,5.08-7.96,6.59-3.13,1.51-6.56,2.27-10.29,2.27-3.31,0-6.31-.6-9.02-1.79-2.71-1.2-5.01-2.92-6.91-5.17v5.8h-12.66V12.45h12.66v26.27c1.9-2.25,4.2-3.97,6.91-5.17,2.71-1.19,5.71-1.79,9.02-1.79,3.73,0,7.16.76,10.29,2.27,3.13,1.51,5.78,3.71,7.96,6.59,1.97,2.6,3.48,5.61,4.54,9.02,1.05,3.41,1.58,7.05,1.58,10.92s-.53,7.51-1.58,10.92c-1.06,3.41-2.57,6.42-4.54,9.02Zm-20.78-37.66c-4.15,0-7.47,1.46-9.97,4.38-2.5,2.92-3.75,6.84-3.75,11.76v3.27c0,4.85,1.27,8.74,3.8,11.66,2.53,2.92,5.84,4.38,9.92,4.38,4.43,0,7.89-1.58,10.39-4.75,2.5-3.17,3.75-7.49,3.75-12.98s-1.25-9.81-3.75-12.98c-2.5-3.17-5.96-4.75-10.39-4.75Z"/>
    <path class="cls-1" d="m616.54,89.36c-5.42,0-10.41-1.05-14.98-3.17-4.57-2.11-8.05-4.96-10.44-8.54l9.5-7.6c1.62,2.67,3.9,4.84,6.86,6.49,2.95,1.65,6.01,2.48,9.18,2.48s5.68-.6,7.54-1.79c1.86-1.2,2.8-2.88,2.8-5.06,0-1.33-.39-2.41-1.16-3.22-.78-.81-2.15-1.49-4.11-2.06-.42-.14-1.32-.35-2.69-.63-1.37-.28-3.18-.67-5.43-1.16-3.59-.77-6.29-1.46-8.12-2.06-1.83-.6-3.41-1.32-4.75-2.16-1.97-1.34-3.45-2.95-4.43-4.85-.99-1.9-1.48-4.15-1.48-6.75,0-5.13,2.02-9.34,6.07-12.61,4.04-3.27,9.23-4.91,15.56-4.91,4.71,0,9.11.95,13.19,2.85,4.08,1.9,7.14,4.43,9.18,7.6l-8.55,7.7c-1.62-2.46-3.69-4.38-6.22-5.75-2.53-1.37-5.31-2.06-8.33-2.06-2.6,0-4.68.55-6.22,1.64-1.55,1.09-2.32,2.55-2.32,4.38,0,1.13.33,2.04,1,2.74.67.7,1.74,1.34,3.22,1.9.56.14,1.25.32,2.06.53.81.21,2.37.56,4.69,1.06,4.57.99,7.74,1.78,9.5,2.37,1.76.6,3.31,1.25,4.64,1.95,2.39,1.34,4.17,3.03,5.33,5.06,1.16,2.04,1.74,4.47,1.74,7.28,0,5.35-2.16,9.74-6.49,13.19-4.33,3.45-9.76,5.17-16.3,5.17Z"/>
  </g>
</svg>