<svg version="1.1" xmlns="http://www.w3.org/2000/svg" viewBox="0 0 1507.0101209588406 1248.8389021878959" width="3014.0202419176812" height="2497.6778043757918">
  <!-- svg-source:excalidraw -->
  
  <defs>
    <style class="style-fonts">
      @font-face {
        font-family: "Virgil";
        src: url("https://excalidraw.com/Virgil.woff2");
      }
      @font-face {
        font-family: "Cascadia";
        src: url("https://excalidraw.com/Cascadia.woff2");
      }
      @font-face {
        font-family: "Assistant";
        src: url("https://excalidraw.com/Assistant-Regular.woff2");
      }
    </style>
    
  </defs>
  <rect x="0" y="0" width="1507.0101209588406" height="1248.8389021878959" fill="#ffffff"></rect><g stroke-linecap="round" transform="translate(734.8963404560204 103.37581590805104) rotate(0 82.40234375 78)"><path d="M104.88 4.1 C115.3 5.8, 126.67 11.14, 135.24 17.91 C143.8 24.69, 151.33 35.2, 156.27 44.75 C161.21 54.3, 164.34 64.7, 164.9 75.21 C165.46 85.73, 163.88 97.88, 159.63 107.85 C155.38 117.82, 147.5 127.71, 139.38 135.02 C131.25 142.34, 121.32 148.35, 110.88 151.76 C100.44 155.17, 87.86 156.37, 76.72 155.47 C65.58 154.57, 53.81 151.19, 44.04 146.34 C34.27 141.5, 24.96 134.61, 18.12 126.41 C11.29 118.21, 5.82 107.58, 3.01 97.14 C0.21 86.71, -0.41 74.26, 1.31 63.79 C3.03 53.32, 6.94 43.06, 13.33 34.35 C19.72 25.64, 30.02 17.3, 39.66 11.54 C49.3 5.78, 58.92 0.77, 71.16 -0.2 C83.41 -1.17, 105.3 4.09, 113.14 5.74 C120.97 7.38, 118.66 8.62, 118.16 9.68 M69.95 1.4 C80.28 -1.13, 94.47 0.54, 105.24 3.56 C116.01 6.57, 125.79 12.7, 134.56 19.5 C143.34 26.3, 153.05 34.89, 157.88 44.36 C162.7 53.83, 163.37 65.99, 163.49 76.31 C163.61 86.62, 162.37 96.77, 158.6 106.23 C154.82 115.69, 148.93 125.66, 140.82 133.06 C132.72 140.46, 120.48 146.66, 109.96 150.62 C99.45 154.57, 88.94 157.57, 77.76 156.8 C66.57 156.03, 52.78 151.03, 42.86 146 C32.93 140.98, 24.87 134.68, 18.21 126.64 C11.55 118.59, 5.8 107.89, 2.89 97.75 C-0.03 87.61, -1.08 76.15, 0.71 65.81 C2.49 55.48, 7.06 44.65, 13.61 35.72 C20.15 26.79, 30.26 18.19, 39.97 12.22 C49.69 6.25, 66.51 1.72, 71.9 -0.1 C77.28 -1.92, 72.08 -0.06, 72.29 1.27" stroke="#1e1e1e" stroke-width="2" fill="none"></path></g><g transform="translate(765.7414730155704 143.72148697550034) rotate(0 51.789955139160156 37.5)"><text x="51.789955139160156" y="0" font-family="Virgil, Segoe UI Emoji" font-size="20px" fill="#1e1e1e" text-anchor="middle" style="white-space: pre;" direction="ltr" dominant-baseline="text-before-edge">Blocks </text><text x="51.789955139160156" y="25" font-family="Virgil, Segoe UI Emoji" font-size="20px" fill="#1e1e1e" text-anchor="middle" style="white-space: pre;" direction="ltr" dominant-baseline="text-before-edge">Tree Root</text><text x="51.789955139160156" y="50" font-family="Virgil, Segoe UI Emoji" font-size="20px" fill="#1e1e1e" text-anchor="middle" style="white-space: pre;" direction="ltr" dominant-baseline="text-before-edge">at time t</text></g><g stroke-linecap="round" transform="translate(338.0153749096553 628.319839441767) rotate(0 75.541015625 62.162109375)"><path d="M88.19 1.22 C98.48 1.7, 109.8 5.86, 118.71 11.12 C127.61 16.38, 136.21 24.87, 141.61 32.8 C147.02 40.72, 150.69 49.95, 151.16 58.67 C151.63 67.39, 148.68 76.87, 144.43 85.13 C140.18 93.38, 133.58 102.02, 125.65 108.21 C117.72 114.39, 107.29 119.71, 96.83 122.22 C86.38 124.73, 73.8 124.75, 62.93 123.26 C52.06 121.78, 40.46 118.37, 31.61 113.31 C22.75 108.25, 15.16 100.73, 9.79 92.89 C4.42 85.04, -0.03 75.2, -0.61 66.23 C-1.18 57.26, 2.05 47.58, 6.33 39.08 C10.61 30.57, 16.99 21.4, 25.05 15.22 C33.11 9.05, 43.22 4.23, 54.69 2.04 C66.16 -0.16, 86.55 1.85, 93.89 2.06 C101.24 2.27, 99.25 2.29, 98.77 3.28 M83.08 1 C93.57 0.52, 105.27 3.94, 114.48 8.19 C123.7 12.45, 132.38 19.07, 138.39 26.53 C144.39 33.99, 149.03 43.67, 150.52 52.95 C152.01 62.23, 150.69 73.81, 147.34 82.21 C143.98 90.6, 137.85 96.77, 130.4 103.31 C122.96 109.84, 112.96 117.93, 102.68 121.39 C92.41 124.85, 79.85 125.16, 68.75 124.07 C57.65 122.98, 45.61 119.42, 36.1 114.86 C26.6 110.3, 17.7 103.94, 11.72 96.73 C5.75 89.52, 1.55 80.39, 0.24 71.59 C-1.07 62.8, 0.35 52.6, 3.84 43.97 C7.33 35.34, 13.75 26.51, 21.18 19.81 C28.6 13.11, 38.23 6.88, 48.39 3.76 C58.55 0.64, 76.8 1.32, 82.14 1.11 C87.48 0.89, 80.45 1.53, 80.43 2.47" stroke="#1e1e1e" stroke-width="2" fill="none"></path></g><g transform="translate(368.4608563409013 665.5266997448446) rotate(0 45.179969787597656 25)"><text x="45.179969787597656" y="0" font-family="Virgil, Segoe UI Emoji" font-size="20px" fill="#1e1e1e" text-anchor="middle" style="white-space: pre;" direction="ltr" dominant-baseline="text-before-edge">Block #0</text><text x="45.179969787597656" y="25" font-family="Virgil, Segoe UI Emoji" font-size="20px" fill="#1e1e1e" text-anchor="middle" style="white-space: pre;" direction="ltr" dominant-baseline="text-before-edge">Hash</text></g><g stroke-linecap="round" transform="translate(538.9177186596553 623.092544519892) rotate(0 75.541015625 62.162109375)"><path d="M57.21 1.27 C66.89 -1.63, 79.86 -0.69, 90.58 1.29 C101.3 3.28, 112.85 7.75, 121.52 13.21 C130.18 18.66, 137.79 26.29, 142.56 34.03 C147.33 41.78, 149.84 50.8, 150.12 59.68 C150.4 68.57, 148.45 79.1, 144.24 87.35 C140.02 95.6, 133.15 103.25, 124.83 109.17 C116.51 115.1, 105 120.54, 94.33 122.89 C83.66 125.24, 71.58 125.05, 60.81 123.3 C50.04 121.54, 38.45 117.6, 29.73 112.34 C21 107.08, 13.41 99.77, 8.49 91.75 C3.56 83.72, 0.49 73.3, 0.17 64.18 C-0.15 55.06, 2.13 45.24, 6.56 37.01 C10.99 28.79, 17.17 21.03, 26.75 14.84 C36.34 8.64, 56.85 2.21, 64.05 -0.15 C71.26 -2.51, 69.99 -0.35, 69.97 0.7 M91.11 1.18 C101.18 2.04, 112.57 8.54, 121.43 14.24 C130.29 19.93, 139.11 27.57, 144.27 35.35 C149.43 43.12, 152.27 51.84, 152.38 60.88 C152.5 69.92, 149.64 81.15, 144.96 89.61 C140.28 98.07, 132.89 106.1, 124.31 111.63 C115.73 117.16, 104.56 121, 93.47 122.79 C82.38 124.57, 68.76 124.17, 57.78 122.36 C46.8 120.54, 36 117.44, 27.59 111.91 C19.17 106.39, 11.71 97.18, 7.3 89.18 C2.89 81.19, 0.91 72.8, 1.12 63.93 C1.33 55.06, 4.07 44.38, 8.58 35.98 C13.08 27.58, 19.59 19.03, 28.14 13.51 C36.69 7.99, 49.2 5.1, 59.88 2.86 C70.55 0.62, 86.72 -0.05, 92.18 0.04 C97.64 0.14, 93.07 2.09, 92.65 3.45" stroke="#1e1e1e" stroke-width="2" fill="none"></path></g><g transform="translate(568.5331982598466 660.2994048229696) rotate(0 46.009971618652344 25)"><text x="46.009971618652344" y="0" font-family="Virgil, Segoe UI Emoji" font-size="20px" fill="#1e1e1e" text-anchor="middle" style="white-space: pre;" direction="ltr" dominant-baseline="text-before-edge">Block #1 </text><text x="46.009971618652344" y="25" font-family="Virgil, Segoe UI Emoji" font-size="20px" fill="#1e1e1e" text-anchor="middle" style="white-space: pre;" direction="ltr" dominant-baseline="text-before-edge">Hash</text></g><g stroke-linecap="round" transform="translate(738.3395936596553 619.451919519892) rotate(0 75.54101562499994 62.162109375)"><path d="M94.78 2.04 C105.32 3.39, 116.95 8.68, 125.24 14.65 C133.54 20.63, 140.27 29.55, 144.54 37.88 C148.81 46.21, 151.33 55.67, 150.87 64.63 C150.42 73.59, 146.88 83.56, 141.8 91.64 C136.72 99.72, 129.06 107.82, 120.38 113.11 C111.7 118.4, 100.44 121.85, 89.71 123.38 C78.99 124.92, 66.59 124.66, 56.03 122.32 C45.46 119.98, 34.5 115.4, 26.34 109.36 C18.18 103.31, 11.5 94.41, 7.06 86.04 C2.63 77.67, -0.44 68.09, -0.25 59.14 C-0.06 50.18, 2.97 40.05, 8.2 32.32 C13.43 24.58, 22.09 18.03, 31.13 12.72 C40.16 7.42, 50.42 1.98, 62.42 0.48 C74.42 -1.02, 95.01 2.31, 103.11 3.73 C111.21 5.15, 111.42 7.79, 111.04 9 M52.42 4.42 C61.8 0.65, 74.83 -0.29, 85.23 0.52 C95.64 1.33, 105.93 4.28, 114.83 9.26 C123.73 14.23, 132.7 22.7, 138.62 30.38 C144.53 38.07, 148.79 46.35, 150.32 55.37 C151.86 64.4, 151.22 75.94, 147.81 84.53 C144.4 93.12, 137.84 100.88, 129.88 106.91 C121.91 112.95, 110.32 117.69, 100.03 120.73 C89.73 123.76, 78.93 126.39, 68.11 125.13 C57.3 123.86, 44.43 118.05, 35.13 113.14 C25.83 108.23, 18.21 102.94, 12.3 95.65 C6.4 88.35, 0.79 78.65, -0.3 69.37 C-1.4 60.08, 1.75 48.29, 5.73 39.95 C9.71 31.6, 15.91 25.39, 23.59 19.3 C31.27 13.2, 47.25 5.97, 51.81 3.37 C56.37 0.78, 50.89 2.99, 50.93 3.72" stroke="#1e1e1e" stroke-width="2" fill="none"></path></g><g transform="translate(768.5450772271315 656.6587798229696) rotate(0 45.41996765136719 25)"><text x="45.41996765136719" y="0" font-family="Virgil, Segoe UI Emoji" font-size="20px" fill="#1e1e1e" text-anchor="middle" style="white-space: pre;" direction="ltr" dominant-baseline="text-before-edge">Block #2</text><text x="45.41996765136719" y="25" font-family="Virgil, Segoe UI Emoji" font-size="20px" fill="#1e1e1e" text-anchor="middle" style="white-space: pre;" direction="ltr" dominant-baseline="text-before-edge">Hash</text></g><g stroke-linecap="round" transform="translate(469.5368592846553 467.660903894892) rotate(0 43.015625 39.263671875)"><path d="M25.63 2.74 C32.1 -0.68, 41.92 -0.85, 49.55 0.46 C57.18 1.77, 65.76 5.91, 71.43 10.62 C77.09 15.32, 81.5 22.15, 83.54 28.68 C85.58 35.21, 85.76 42.98, 83.68 49.81 C81.6 56.63, 76.68 64.86, 71.06 69.61 C65.43 74.36, 57.63 77.32, 49.92 78.3 C42.2 79.28, 32.12 78.37, 24.76 75.48 C17.4 72.58, 9.74 66.97, 5.76 60.94 C1.77 54.9, 0.55 46.37, 0.88 39.26 C1.2 32.14, 2.76 24.47, 7.68 18.25 C12.6 12.02, 25.85 4.61, 30.4 1.92 C34.96 -0.78, 34.7 1.53, 35.03 2.08 M28.37 3.74 C35.21 1.09, 45.01 0.43, 52.25 1.42 C59.49 2.42, 66.53 4.92, 71.81 9.71 C77.09 14.5, 81.84 23, 83.93 30.18 C86.01 37.37, 86.87 46.05, 84.33 52.82 C81.8 59.6, 75.12 66.43, 68.74 70.83 C62.36 75.24, 53.87 78.62, 46.04 79.27 C38.2 79.92, 28.4 78.17, 21.74 74.72 C15.09 71.27, 9.8 64.78, 6.09 58.55 C2.38 52.31, -0.69 44.13, -0.52 37.32 C-0.36 30.5, 2.64 23.55, 7.08 17.66 C11.53 11.78, 22.77 4.35, 26.15 2 C29.52 -0.35, 26.93 2.79, 27.32 3.56" stroke="#1e1e1e" stroke-width="2" fill="none"></path></g><g stroke-linecap="round" transform="translate(864.0720155346553 455.287857019892) rotate(0 43.015625 39.263671875)"><path d="M63.69 5.02 C70.71 7.94, 77.37 14.58, 81.17 20.62 C84.97 26.66, 87.05 34.36, 86.51 41.28 C85.96 48.19, 82.57 56.3, 77.91 62.11 C73.24 67.92, 65.8 73.6, 58.53 76.15 C51.25 78.69, 41.78 78.73, 34.24 77.35 C26.71 75.98, 18.93 72.58, 13.33 67.9 C7.73 63.22, 2.36 56.07, 0.63 49.29 C-1.1 42.5, 0.31 34, 2.96 27.22 C5.6 20.43, 10.57 12.93, 16.49 8.57 C22.41 4.22, 29.7 1.22, 38.49 1.1 C47.27 0.98, 63.42 6, 69.21 7.87 C75 9.73, 73.65 11.81, 73.22 12.3 M52.56 2.55 C59.7 3.54, 68.58 7.45, 74.13 12.46 C79.68 17.47, 84.67 25.49, 85.84 32.61 C87.02 39.72, 84.27 48.63, 81.19 55.15 C78.11 61.67, 73.59 67.65, 67.39 71.71 C61.19 75.78, 51.78 79.22, 44 79.52 C36.22 79.81, 27.07 77.26, 20.72 73.48 C14.38 69.69, 9.44 63.41, 5.93 56.8 C2.43 50.19, -0.97 40.75, -0.3 33.81 C0.37 26.88, 5 20.3, 9.97 15.2 C14.93 10.1, 22.05 5.32, 29.5 3.2 C36.95 1.08, 50.78 2.75, 54.68 2.47 C58.59 2.19, 53.32 1.05, 52.92 1.53" stroke="#1e1e1e" stroke-width="1" fill="none"></path></g><g stroke-linecap="round"><g transform="translate(439.6149842846553 630.531997644892) rotate(0 25.06640625 -44.84765625)"><path d="M-0.24 -0.86 C8 -15.9, 40.96 -75.17, 49.52 -90.15 M-1.82 1.3 C6.81 -13.59, 43.13 -73.63, 51.91 -88.85" stroke="#1e1e1e" stroke-width="1" fill="none"></path></g></g><mask></mask><g stroke-linecap="round"><g transform="translate(536.2477967846553 542.176528894892) rotate(0 25.298828125 41.75)"><path d="M0.57 0.8 C0.9 0.07, -5.69 -17.32, 2.62 -3.2 C10.93 10.93, 42.56 70.44, 50.45 85.55 M-0.59 0.17 C-0.52 0.14, -6.96 -16.13, 1.41 -1.76 C9.77 12.61, 41.52 71.84, 49.6 86.37" stroke="#1e1e1e" stroke-width="1" fill="none"></path></g></g><mask></mask><g stroke-linecap="round" transform="translate(941.6872499096553 615.850357019892) rotate(0 75.54101562499994 62.162109375)"><path d="M51.66 3.17 C61.26 -0.3, 75.11 -0.97, 86.13 0.24 C97.14 1.46, 108.73 5.47, 117.78 10.46 C126.82 15.45, 134.76 22.53, 140.42 30.19 C146.08 37.86, 150.62 47.6, 151.71 56.45 C152.8 65.3, 151 74.79, 146.96 83.28 C142.92 91.78, 135.42 101.14, 127.47 107.41 C119.52 113.67, 109.46 118.01, 99.26 120.86 C89.06 123.71, 77.12 125.62, 66.25 124.51 C55.39 123.39, 43.34 119.37, 34.05 114.19 C24.77 109.02, 16.29 101.04, 10.54 93.46 C4.79 85.88, 0.67 77.45, -0.45 68.73 C-1.56 60.01, -0.17 49.75, 3.84 41.15 C7.85 32.55, 14.95 23.48, 23.6 17.13 C32.26 10.78, 49.9 5.52, 55.77 3.06 C61.65 0.6, 58.54 1.55, 58.85 2.39" stroke="#1e1e1e" stroke-width="2.5" fill="none" stroke-dasharray="8 10"></path></g><g transform="translate(983.9727276787918 653.0572173229696) rotate(0 33.33997344970703 25)"><text x="33.33997344970703" y="0" font-family="Virgil, Segoe UI Emoji" font-size="20px" fill="#1e1e1e" text-anchor="middle" style="white-space: pre;" direction="ltr" dominant-baseline="text-before-edge">Empty </text><text x="33.33997344970703" y="25" font-family="Virgil, Segoe UI Emoji" font-size="20px" fill="#1e1e1e" text-anchor="middle" style="white-space: pre;" direction="ltr" dominant-baseline="text-before-edge">leaf</text></g><g stroke-linecap="round"><g transform="translate(890.9938905346553 531.246841394892) rotate(0 -25.8203125 46.177734375)"><path d="M-1.04 0.43 C-9.67 16.13, -43.49 78.1, -52.12 93.26 M0.62 -0.39 C-8.18 15.07, -44.79 76.18, -53.32 91.61" stroke="#1e1e1e" stroke-width="1" fill="none"></path></g></g><mask></mask><g stroke-linecap="round"><g transform="translate(988.8767030346553 623.199966394892) rotate(0 -28.01953125 -47.5234375)"><path d="M0.69 -0.95 C-8.87 -16.68, -46.91 -78.74, -56.39 -94.46 M-0.41 1.17 C-10.24 -14.91, -48.08 -80.4, -57.53 -96.28" stroke="#1e1e1e" stroke-width="1" fill="none"></path></g></g><mask></mask><g stroke-linecap="round"><g transform="translate(532.9704530346553 469.512466394892) rotate(0 18.1171875 -23.587890625)"><path d="M0.49 -0.94 C6.68 -9.1, 30.56 -39.96, 36.68 -47.8" stroke="#1e1e1e" stroke-width="1.5" fill="none" stroke-dasharray="8 9"></path></g></g><mask></mask><g stroke-linecap="round"><g transform="translate(881.1852967846553 463.492935144892) rotate(0 -17.330078125 -23.171875)"><path d="M-0.45 -0.25 C-6 -7.83, -27.97 -38.91, -33.73 -46.59" stroke="#1e1e1e" stroke-width="1.5" fill="none" stroke-dasharray="8 9"></path></g></g><mask></mask><g stroke-linecap="round"><g transform="translate(755.0018092060204 235.0477528552653) rotate(0 -31.90234375 33.9609375)"><path d="M0.13 -1.1 C-10.5 10.35, -54.27 56.47, -64.94 68.01" stroke="#1e1e1e" stroke-width="1.5" fill="none" stroke-dasharray="8 9"></path></g></g><mask></mask><g stroke-linecap="round"><g transform="translate(874.1971217060204 238.2508778552653) rotate(0 30.783203125 31.72265625)"><path d="M0.22 0.68 C10.66 11.09, 52.61 52.56, 62.76 62.94" stroke="#1e1e1e" stroke-width="1.5" fill="none" stroke-dasharray="8 9"></path></g></g><mask></mask><g transform="translate(643.3962342846553 355.082778894892) rotate(0 173.69985961914062 12.5)"><text x="0" y="0" font-family="Virgil, Segoe UI Emoji" font-size="20px" fill="#1971c2" text-anchor="start" style="white-space: pre;" direction="ltr" dominant-baseline="text-before-edge">In total the tree is 32 levels high</text></g><g stroke-linecap="round" transform="translate(1317.3171129823843 612.0685406055975) rotate(0 75.54101562499994 60)"><path d="M92.84 1.34 C103.36 2.34, 115.44 7.94, 124.15 13.69 C132.85 19.45, 140.65 27.84, 145.09 35.87 C149.53 43.9, 151.11 53.45, 150.77 61.88 C150.43 70.32, 147.77 78.78, 143.04 86.5 C138.31 94.21, 131.2 102.76, 122.4 108.18 C113.61 113.61, 101.05 117.49, 90.26 119.04 C79.47 120.59, 68.26 119.72, 57.68 117.49 C47.11 115.26, 35.23 111.04, 26.8 105.66 C18.36 100.28, 11.41 92.85, 7.06 85.22 C2.71 77.59, 0.63 68.68, 0.69 59.87 C0.75 51.06, 2.73 40.27, 7.43 32.36 C12.13 24.46, 20.05 17.55, 28.89 12.44 C37.73 7.32, 49.16 3.33, 60.46 1.67 C71.77 0.01, 89.86 2.05, 96.72 2.47 C103.59 2.89, 101.96 3.1, 101.65 4.2" stroke="#1e1e1e" stroke-width="2.5" fill="none" stroke-dasharray="8 10"></path></g><g transform="translate(1359.602590751521 647.1421337344045) rotate(0 33.33997344970703 25)"><text x="33.33997344970703" y="0" font-family="Virgil, Segoe UI Emoji" font-size="20px" fill="#1e1e1e" text-anchor="middle" style="white-space: pre;" direction="ltr" dominant-baseline="text-before-edge">Empty </text><text x="33.33997344970703" y="25" font-family="Virgil, Segoe UI Emoji" font-size="20px" fill="#1e1e1e" text-anchor="middle" style="white-space: pre;" direction="ltr" dominant-baseline="text-before-edge">leaf</text></g><g transform="translate(108.40158536930903 1213.8389021878959) rotate(0 251.06979370117188 12.5)"><text x="0" y="0" font-family="Virgil, Segoe UI Emoji" font-size="20px" fill="#1e1e1e" text-anchor="start" style="white-space: pre;" direction="ltr" dominant-baseline="text-before-edge">Block hash is computed as hash of a block header</text></g><g stroke-linecap="round" transform="translate(962.8009725660929 922.1999668573155) rotate(0 168.8828125 132.265625)"><path d="M32 0 C95.43 2.73, 157.36 1.11, 305.77 0 M32 0 C137.05 0.16, 240.2 -0.35, 305.77 0 M305.77 0 C325.8 0.16, 336.39 11.54, 337.77 32 M305.77 0 C328.24 1.09, 338.68 11.53, 337.77 32 M337.77 32 C338.46 79.21, 339.45 130.26, 337.77 232.53 M337.77 32 C339.13 78.19, 339.56 123.75, 337.77 232.53 M337.77 232.53 C336.71 254.2, 327.13 265.54, 305.77 264.53 M337.77 232.53 C338.06 253.48, 326.49 263.44, 305.77 264.53 M305.77 264.53 C218.67 267.26, 131.11 267.46, 32 264.53 M305.77 264.53 C213.9 264.09, 121.86 265.15, 32 264.53 M32 264.53 C10.85 264.87, -0.21 252.21, 0 232.53 M32 264.53 C11.74 266.45, 2.29 254.74, 0 232.53 M0 232.53 C0.71 178.2, 0.41 127.68, 0 32 M0 232.53 C-0.37 181.12, -0.17 128.31, 0 32 M0 32 C1.14 9.58, 8.76 1.61, 32 0 M0 32 C1.44 8.51, 9.75 2.18, 32 0" stroke="#1971c2" stroke-width="2" fill="none"></path></g><g transform="translate(975.4572225660929 938.2273106073155) rotate(0 107.43991088867188 12.5)"><text x="0" y="0" font-family="Virgil, Segoe UI Emoji" font-size="20px" fill="#1971c2" text-anchor="start" style="white-space: pre;" direction="ltr" dominant-baseline="text-before-edge">Note Hash Tree Root</text></g><g transform="translate(977.0665975660929 973.0007481073155) rotate(0 93.1799087524414 12.5)"><text x="0" y="0" font-family="Virgil, Segoe UI Emoji" font-size="20px" fill="#1971c2" text-anchor="start" style="white-space: pre;" direction="ltr" dominant-baseline="text-before-edge">Nullifier Tree Root</text></g><g transform="translate(977.0665975660929 1007.7702793573155) rotate(0 100.72991943359375 12.5)"><text x="0" y="0" font-family="Virgil, Segoe UI Emoji" font-size="20px" fill="#1971c2" text-anchor="start" style="white-space: pre;" direction="ltr" dominant-baseline="text-before-edge">Contract Tree Root</text></g><g transform="translate(976.8400350660929 1042.7702793573155) rotate(0 153.7498779296875 12.5)"><text x="0" y="0" font-family="Virgil, Segoe UI Emoji" font-size="20px" fill="#1971c2" text-anchor="start" style="white-space: pre;" direction="ltr" dominant-baseline="text-before-edge">L1 To L2 Messages Tree Root</text></g><g transform="translate(976.8400350660929 1077.5739283476014) rotate(0 87.5499267578125 12.5)"><text x="0" y="0" font-family="Virgil, Segoe UI Emoji" font-size="20px" fill="#1971c2" text-anchor="start" style="white-space: pre;" direction="ltr" dominant-baseline="text-before-edge">Blocks Tree Root</text></g><g transform="translate(976.8400350660929 1113.0007481073155) rotate(0 115.78990936279297 12.5)"><text x="0" y="0" font-family="Virgil, Segoe UI Emoji" font-size="20px" fill="#1971c2" text-anchor="start" style="white-space: pre;" direction="ltr" dominant-baseline="text-before-edge">Public Data Tree Root</text></g><g transform="translate(976.8400350660929 1148.0007481073155) rotate(0 106.59992218017578 12.5)"><text x="0" y="0" font-family="Virgil, Segoe UI Emoji" font-size="20px" fill="#1971c2" text-anchor="start" style="white-space: pre;" direction="ltr" dominant-baseline="text-before-edge">Global Variables Hash</text></g><g transform="translate(973.7139965563786 888.007706115128) rotate(0 149.6898956298828 12.5)"><text x="0" y="0" font-family="Virgil, Segoe UI Emoji" font-size="20px" fill="#e03131" text-anchor="start" style="white-space: pre;" direction="ltr" dominant-baseline="text-before-edge">Block #2 Header - info at t-1</text></g><g stroke-linecap="round" transform="translate(379.0740953821103 101.79606683718976) rotate(0 82.40234375 78)"><path d="M88.79 0.89 C99.37 0.55, 110.75 5.29, 120.59 10.07 C130.43 14.85, 140.86 21.42, 147.83 29.56 C154.79 37.7, 159.76 48.48, 162.38 58.91 C165 69.35, 165.54 81.76, 163.56 92.15 C161.57 102.55, 156.9 112.5, 150.47 121.27 C144.04 130.04, 134.53 139.12, 124.98 144.77 C115.44 150.42, 104.09 153.76, 93.21 155.17 C82.32 156.59, 70.5 156.29, 59.68 153.27 C48.87 150.25, 36.89 144.06, 28.32 137.06 C19.75 130.05, 12.83 120.52, 8.28 111.25 C3.72 101.97, 1.29 91.82, 0.97 81.41 C0.65 71, 2.43 58.7, 6.36 48.8 C10.3 38.9, 16.47 29.2, 24.59 22 C32.71 14.8, 42.92 9.1, 55.08 5.58 C67.24 2.06, 89.28 0.92, 97.56 0.88 C105.83 0.84, 105.18 3.94, 104.73 5.34" stroke="#1e1e1e" stroke-width="2.5" fill="none" stroke-dasharray="1.5 8"></path></g><g transform="translate(409.9192279416602 142.14173790463906) rotate(0 51.789955139160156 37.5)"><text x="51.789955139160156" y="0" font-family="Virgil, Segoe UI Emoji" font-size="20px" fill="#1e1e1e" text-anchor="middle" style="white-space: pre;" direction="ltr" dominant-baseline="text-before-edge">Blocks </text><text x="51.789955139160156" y="25" font-family="Virgil, Segoe UI Emoji" font-size="20px" fill="#1e1e1e" text-anchor="middle" style="white-space: pre;" direction="ltr" dominant-baseline="text-before-edge">Tree Root</text><text x="51.789955139160156" y="50" font-family="Virgil, Segoe UI Emoji" font-size="20px" fill="#1e1e1e" text-anchor="middle" style="white-space: pre;" direction="ltr" dominant-baseline="text-before-edge">at t-1</text></g><g stroke-linecap="round"><g transform="translate(399.6405016321103 232.58805902468976) rotate(0 -31.90234375 33.9609375)"><path d="M0.2 0.39 C-10.33 11.59, -52.48 55.67, -62.99 66.99" stroke="#1e1e1e" stroke-width="1.5" fill="none" stroke-dasharray="1.5 7"></path></g></g><mask></mask><g stroke-linecap="round"><g transform="translate(518.8358141321103 235.79118402468976) rotate(0 30.783203125 31.72265625)"><path d="M0.82 -0.93 C11.21 9.64, 52.53 53.09, 62.52 63.81" stroke="#1e1e1e" stroke-width="1.5" fill="none" stroke-dasharray="1.5 7"></path></g></g><mask></mask><g stroke-linecap="round" transform="translate(52.06609553955491 101.7926804279353) rotate(0 82.40234375 78)"><path d="M106.51 4.21 C117.02 6.13, 127.71 13.15, 136.13 19.74 C144.55 26.33, 152.23 34.45, 157.05 43.73 C161.87 53.02, 164.78 64.67, 165.06 75.44 C165.35 86.22, 163.04 98.43, 158.75 108.39 C154.47 118.34, 147.62 128, 139.34 135.16 C131.07 142.32, 119.6 147.85, 109.09 151.35 C98.58 154.85, 87.31 157.07, 76.3 156.16 C65.3 155.26, 52.81 150.94, 43.06 145.93 C33.3 140.91, 24.48 134.43, 17.78 126.06 C11.08 117.69, 5.58 106.21, 2.86 95.71 C0.14 85.21, -0.34 73.45, 1.46 63.05 C3.27 52.65, 7.24 41.87, 13.68 33.3 C20.11 24.74, 30.57 17, 40.08 11.67 C49.6 6.34, 58.77 2.48, 70.76 1.33 C82.75 0.19, 104.19 3.58, 112.01 4.79 C119.83 6.01, 118.12 7.16, 117.68 8.61" stroke="#1e1e1e" stroke-width="2.5" fill="none" stroke-dasharray="1.5 8"></path></g><g transform="translate(82.91122809910485 142.1383514953846) rotate(0 51.789955139160156 37.5)"><text x="51.789955139160156" y="0" font-family="Virgil, Segoe UI Emoji" font-size="20px" fill="#1e1e1e" text-anchor="middle" style="white-space: pre;" direction="ltr" dominant-baseline="text-before-edge">Blocks </text><text x="51.789955139160156" y="25" font-family="Virgil, Segoe UI Emoji" font-size="20px" fill="#1e1e1e" text-anchor="middle" style="white-space: pre;" direction="ltr" dominant-baseline="text-before-edge">Tree Root</text><text x="51.789955139160156" y="50" font-family="Virgil, Segoe UI Emoji" font-size="20px" fill="#1e1e1e" text-anchor="middle" style="white-space: pre;" direction="ltr" dominant-baseline="text-before-edge">at t-2</text></g><g stroke-linecap="round"><g transform="translate(72.63250178955491 232.5846726154353) rotate(0 -31.90234375 33.9609375)"><path d="M-0.23 0.75 C-10.78 12.05, -52.24 56.86, -62.63 68.1" stroke="#1e1e1e" stroke-width="1.5" fill="none" stroke-dasharray="1.5 7"></path></g></g><mask></mask><g stroke-linecap="round"><g transform="translate(191.8278142895549 235.7877976154353) rotate(0 30.783203125 31.72265625)"><path d="M1.17 0.18 C11.67 10.67, 52.85 53.13, 62.77 63.73" stroke="#1e1e1e" stroke-width="1.5" fill="none" stroke-dasharray="1.5 7"></path></g></g><mask></mask><g stroke-linecap="round" transform="translate(536.3644044423156 923.7464543069095) rotate(0 168.8828125 132.265625)"><path d="M32 0 C105.78 -1.12, 183.43 -1, 305.77 0 M32 0 C94.55 2.16, 155.45 1.61, 305.77 0 M305.77 0 C326.34 -0.47, 336.96 10.95, 337.77 32 M305.77 0 C327.26 1.24, 340.01 9.77, 337.77 32 M337.77 32 C337.41 94.59, 336.9 161.14, 337.77 232.53 M337.77 32 C339.1 86.88, 338.53 143.06, 337.77 232.53 M337.77 232.53 C336.45 255.08, 328.23 264.56, 305.77 264.53 M337.77 232.53 C339.73 256.1, 325.56 262.39, 305.77 264.53 M305.77 264.53 C251.39 264.45, 196.17 264.86, 32 264.53 M305.77 264.53 C231.01 265.59, 156.22 266.1, 32 264.53 M32 264.53 C10.14 266.51, 1.3 252.28, 0 232.53 M32 264.53 C9.62 264.97, -1.39 254.61, 0 232.53 M0 232.53 C0.7 171.37, -0.46 109.39, 0 32 M0 232.53 C1.29 157.84, 0.96 82.27, 0 32 M0 32 C-1.16 10.2, 9.58 -0.82, 32 0 M0 32 C2.22 11.52, 11.65 0.31, 32 0" stroke="#1971c2" stroke-width="2" fill="none"></path></g><g transform="translate(549.0206544423156 939.7737980569095) rotate(0 107.43991088867188 12.5)"><text x="0" y="0" font-family="Virgil, Segoe UI Emoji" font-size="20px" fill="#1971c2" text-anchor="start" style="white-space: pre;" direction="ltr" dominant-baseline="text-before-edge">Note Hash Tree Root</text></g><g transform="translate(550.6300294423156 974.5472355569093) rotate(0 93.1799087524414 12.5)"><text x="0" y="0" font-family="Virgil, Segoe UI Emoji" font-size="20px" fill="#1971c2" text-anchor="start" style="white-space: pre;" direction="ltr" dominant-baseline="text-before-edge">Nullifier Tree Root</text></g><g transform="translate(550.6300294423156 1009.3167668069093) rotate(0 100.72991943359375 12.5)"><text x="0" y="0" font-family="Virgil, Segoe UI Emoji" font-size="20px" fill="#1971c2" text-anchor="start" style="white-space: pre;" direction="ltr" dominant-baseline="text-before-edge">Contract Tree Root</text></g><g transform="translate(550.4034669423156 1044.3167668069093) rotate(0 153.7498779296875 12.5)"><text x="0" y="0" font-family="Virgil, Segoe UI Emoji" font-size="20px" fill="#1971c2" text-anchor="start" style="white-space: pre;" direction="ltr" dominant-baseline="text-before-edge">L1 To L2 Messages Tree Root</text></g><g transform="translate(550.4034669423156 1079.5472355569093) rotate(0 87.5499267578125 12.5)"><text x="0" y="0" font-family="Virgil, Segoe UI Emoji" font-size="20px" fill="#1971c2" text-anchor="start" style="white-space: pre;" direction="ltr" dominant-baseline="text-before-edge">Blocks Tree Root</text></g><g transform="translate(550.4034669423156 1114.5472355569093) rotate(0 115.78990936279297 12.5)"><text x="0" y="0" font-family="Virgil, Segoe UI Emoji" font-size="20px" fill="#1971c2" text-anchor="start" style="white-space: pre;" direction="ltr" dominant-baseline="text-before-edge">Public Data Tree Root</text></g><g transform="translate(550.4034669423156 1149.5472355569093) rotate(0 106.59992218017578 12.5)"><text x="0" y="0" font-family="Virgil, Segoe UI Emoji" font-size="20px" fill="#1971c2" text-anchor="start" style="white-space: pre;" direction="ltr" dominant-baseline="text-before-edge">Global Variables Hash</text></g><g transform="translate(547.2774284326015 886.9932750064372) rotate(0 149.68988037109375 12.5)"><text x="0" y="0" font-family="Virgil, Segoe UI Emoji" font-size="20px" fill="#e03131" text-anchor="start" style="white-space: pre;" direction="ltr" dominant-baseline="text-before-edge">Block #1 Header - info at t-2</text></g><g stroke-linecap="round"><g transform="translate(1160.508260273111 1087.1253312234448) rotate(0 -145.85661009079263 -515.1027247594359)"><path d="M0.57 0.76 C55.57 -21.4, 304.43 38.35, 329.79 -133.52 C355.15 -305.38, 311.27 -894.46, 152.75 -1030.46 C-5.78 -1166.46, -492.32 -963.3, -621.37 -949.52" stroke="#e03131" stroke-width="2.5" fill="none" stroke-dasharray="8 10"></path></g><g transform="translate(1160.508260273111 1087.1253312234448) rotate(0 -145.85661009079263 -515.1027247594359)"><path d="M-596.57 -966.4 C-602.45 -961.84, -611.38 -957.49, -621.37 -949.52" stroke="#e03131" stroke-width="2.5" fill="none"></path></g><g transform="translate(1160.508260273111 1087.1253312234448) rotate(0 -145.85661009079263 -515.1027247594359)"><path d="M-591.52 -946.51 C-598.75 -947.59, -609.11 -948.91, -621.37 -949.52" stroke="#e03131" stroke-width="2.5" fill="none"></path></g></g><mask></mask><g stroke-linecap="round"><g transform="translate(542.8855995003 1093.4191141209249) rotate(0 -205.14838552498225 -413.5847300464069)"><path d="M-0.65 -0.17 C-59.75 -16.85, -285.19 38.1, -353.62 -99.57 C-422.05 -237.24, -401.72 -704.78, -411.22 -826.19" stroke="#e03131" stroke-width="2.5" fill="none" stroke-dasharray="8 10"></path></g><g transform="translate(542.8855995003 1093.4191141209249) rotate(0 -205.14838552498225 -413.5847300464069)"><path d="M-400.39 -798.21 C-404.93 -810.85, -408.01 -821.15, -411.22 -826.19" stroke="#e03131" stroke-width="2.5" fill="none"></path></g><g transform="translate(542.8855995003 1093.4191141209249) rotate(0 -205.14838552498225 -413.5847300464069)"><path d="M-420.91 -797.8 C-417.62 -810.49, -412.88 -820.94, -411.22 -826.19" stroke="#e03131" stroke-width="2.5" fill="none"></path></g></g><mask></mask><g stroke-linecap="round"><g transform="translate(856.0049157665323 734.8109393956654) rotate(0 125.49224358917661 71.73465656483961)"><path d="M-0.7 1.19 C41.12 25.12, 208.32 120.77, 250.38 144.4" stroke="#1e1e1e" stroke-width="2.5" fill="none" stroke-dasharray="8 10"></path></g></g><mask></mask><g stroke-linecap="round"><g transform="translate(623.6485791180767 747.3840367241942) rotate(0 23.73551918003625 61.85992822569028)"><path d="M-0.12 -0.04 C7.69 20.56, 39.69 102.68, 47.44 123.32" stroke="#1e1e1e" stroke-width="2.5" fill="none" stroke-dasharray="8 10"></path></g></g><mask></mask></svg>