<?xml version="1.0" standalone="no"?>
<!DOCTYPE svg PUBLIC "-//W3C//DTD SVG 1.1//EN"
  "http://www.w3.org/Graphics/SVG/1.1/DTD/svg11.dtd">
<svg version="1.1" xmlns="http://www.w3.org/2000/svg" xmlns:xlink="http://www.w3.org/1999/xlink" width="3264" height="1933" viewBox="-2065.5230212105535 -430 3139.046042421107 1859" id="ccdiagram"><filter id="grayscale"><feColorMatrix type="saturate" values="0"></feColorMatrix></filter><filter id="highlight"><feColorMatrix type="matrix" color-interpolation-filters="sRGB" values="0.20338 0 0 0 0
                0 0.58474 0 0 0
                0 0 0.97033 0 0
                0 0 0 1 0"></feColorMatrix></filter><defs><style type="text/css">@import url('https://fonts.googleapis.com/css2?family=Noto+Sans:ital,wght@0,100..900;1,100..900&amp;family=Roboto+Mono:ital,wght@0,100..700;1,100..700&amp;display=swap');</style></defs><g><rect x="-2065.5230212105535" y="-430" width="3139.046042421107" height="1859" fill="none" id="interactionLayer"></rect><g pointer-events="auto"></g><g pointer-events="auto"></g><g pointer-events="auto"></g><g pointer-events="auto"></g><g pointer-events="auto"><g><g class="cloud-maps_raptor_node" id="1063814395"><g><g><polygon transform="translate(-592,-379) matrix(-0.707 -0.409 0.707 -0.409 0 0)" points="-2306.475 -2035.125, -2306.475 0, 0 0, 0 -2035.125" stroke-width="11.2" stroke="#3949ab" stroke-dasharray="32" fill="none"></polygon></g><g><polygon points="-592 -379, -624 -398, -848 -268, -848 -231" stroke="#3949ab" stroke-width="8" fill="#3949ab"></polygon><text font-family="Roboto Mono" font-size="20pt" font-weight="bold" fill="#ffffff" transform="translate(-617 -375) matrix(0.707 -0.409 0.707 0.409 0 0)" text-anchor="end">us-east-1</text></g></g></g></g></g><g pointer-events="auto"><g><g class="cloud-maps_raptor_node" id="1060937c-10bb-4cd7-a81e-9459d4456a06"><g><g><polygon points="-432 1230, -368 1230, 752 583, 752 546, -592 -231, -1744 435, -1744 472" stroke="#607d8b" stroke-width="8" fill="none"></polygon></g><g><polygon points="-592 -231, -624 -250, -848 -120, -848 -83" stroke="#607d8b" stroke-width="8" fill="#607d8b"></polygon><text font-family="Roboto Mono" font-size="20pt" font-weight="bold" fill="#ffffff" transform="translate(-617 -227) matrix(0.707 -0.409 0.707 0.409 0 0)" text-anchor="end">spartan-vpc</text></g></g></g></g></g><g pointer-events="auto"></g><g pointer-events="auto"><g><g class="cloud-maps_raptor_node" id="2950e0f3-da6b-4d33-bcdd-6591449bd57e"><g><g><polygon transform="translate(-592,-9) matrix(-0.707 -0.409 0.707 -0.409 0 0)" points="-1401.9750000000001 -1130.625, -1401.9750000000001 0, 0 0, 0 -1130.625" stroke-width="11.2" stroke="#ff9800" stroke-dasharray="16" fill="none"></polygon></g><g><polygon points="-592 -9, -624 -28, -848 102, -848 139" stroke="#ff9800" stroke-width="8" fill="#ff9800"></polygon><text font-family="Roboto Mono" font-size="20pt" font-weight="bold" fill="#ffffff" transform="translate(-617 -5) matrix(0.707 -0.409 0.707 0.409 0 0)" text-anchor="end">k8s: staging</text></g></g></g></g></g><g pointer-events="auto"></g><g pointer-events="auto"></g><g pointer-events="none"></g><g pointer-events="auto"><g id="1e8e0e80-92fc-4547-a50b-595a3656b835-07dcc1ac-95b6-4686-b765-239901680076"><g cursor="cell"><line x1="-208" y1="564" x2="-688" y2="638" stroke="red" stroke-width="8" opacity="0"></line><line x1="-208" y1="564" x2="-688" y2="638" stroke="#4286c5" stroke-width="2" stroke-linecap="round"></line></g></g><g id="ea24123e-93f9-4d51-aa7b-d3fc8a14ca0a-910fec61-86ff-465c-b35a-f4af2427f364"><g cursor="cell"><line x1="-816" y1="342" x2="-224" y2="518" stroke="red" stroke-width="8" opacity="0"></line><line x1="-816" y1="342" x2="-224" y2="518" stroke="#4286c5" stroke-width="2" stroke-linecap="round"></line></g></g><g id="3fb2f36f-651d-44d9-b676-966d4668faf2-f87dd961-7305-4480-ab81-662bc5259cad"><g cursor="cell"><line x1="368" y1="398" x2="656" y2="231" stroke="red" stroke-width="8" opacity="0"></line><line x1="368" y1="398" x2="656" y2="231" stroke="#9c27b0" stroke-width="2" stroke-dasharray="8,6" stroke-linecap="butt"></line></g></g><g id="07dcc1ac-95b6-4686-b765-239901680076-1cbe11a9-dc63-4b59-a865-58050b1a5084"><g cursor="cell"><line x1="-688" y1="638" x2="-576" y2="333" stroke="red" stroke-width="8" opacity="0"></line><line x1="-688" y1="638" x2="-576" y2="333" stroke="#4286c5" stroke-width="2" stroke-linecap="round"></line></g></g><g id="ea24123e-93f9-4d51-aa7b-d3fc8a14ca0a-ab7ea802-2ed5-4945-abc8-b78dec7e6a63"><g cursor="cell"><line x1="-816" y1="305" x2="-368" y2="46" stroke="red" stroke-width="8" opacity="0"></line><line x1="-816" y1="305" x2="-368" y2="46" stroke="#9c27b0" stroke-width="2" stroke-dasharray="8,6" stroke-linecap="butt"></line></g></g><g id="6bfec491-ea55-496f-a5a6-460c4df19e08-3fb2f36f-651d-44d9-b676-966d4668faf2"><g cursor="cell"><line x1="-144" y1="694" x2="304" y2="435" stroke="red" stroke-width="8" opacity="0"></line><line x1="-144" y1="694" x2="304" y2="435" stroke="#9c27b0" stroke-width="2" stroke-dasharray="8,6" stroke-linecap="butt"></line></g></g><g id="6bfec491-ea55-496f-a5a6-460c4df19e08-9587c384-99ec-4ee1-88a3-a133c675a751"><g cursor="cell"><line x1="-144" y1="694" x2="-160" y2="574" stroke="red" stroke-width="8" opacity="0"></line><line x1="-144" y1="694" x2="-160" y2="574" stroke="#4286c5" stroke-width="2" stroke-linecap="round"></line></g></g><g id="f24da79e-a91b-44f0-8491-d2233d782e8b-ac4f300d-9b2a-4221-a567-63c432555827"><g cursor="cell"><line x1="-48" y1="453" x2="128" y2="333" stroke="red" stroke-width="8" opacity="0"></line><line x1="-48" y1="453" x2="128" y2="333" stroke="#9c27b0" stroke-width="2" stroke-dasharray="8,6" stroke-linecap="butt"></line></g></g><g id="ac4f300d-9b2a-4221-a567-63c432555827-3b6485ec-1e3f-4587-8a28-d68be0cfc024"><g cursor="cell"><line x1="192" y1="296" x2="480" y2="130" stroke="red" stroke-width="8" opacity="0"></line><line x1="192" y1="296" x2="480" y2="130" stroke="#9c27b0" stroke-width="2" stroke-dasharray="8,6" stroke-linecap="butt"></line></g></g><g id="ab7ea802-2ed5-4945-abc8-b78dec7e6a63-6d7f1118-8831-4637-b52c-8e62499fc60d"><g cursor="cell"><line x1="-304" y1="9" x2="-16" y2="-157" stroke="red" stroke-width="8" opacity="0"></line><line x1="-304" y1="9" x2="-16" y2="-157" stroke="#9c27b0" stroke-width="2" stroke-dasharray="8,6" stroke-linecap="butt"></line></g></g><g id="ffb03961-cc58-4911-ae20-20f5b0aacc64-e02d6ce8-3889-478c-907a-d1ddc9ad1034"><g cursor="cell"><line x1="-480" y1="481" x2="-48" y2="231" stroke="red" stroke-width="8" opacity="0"></line><line x1="-480" y1="481" x2="-48" y2="231" stroke="#9c27b0" stroke-width="2" stroke-dasharray="8,6" stroke-linecap="butt"></line></g></g><g id="ea24123e-93f9-4d51-aa7b-d3fc8a14ca0a-0d083dc5-8ae8-4f28-8599-4c2c418c317d"><g cursor="cell"><line x1="-816" y1="305" x2="-576" y2="315" stroke="red" stroke-width="8" opacity="0"></line><line x1="-816" y1="305" x2="-576" y2="315" stroke="#4286c5" stroke-width="2" stroke-linecap="round"></line></g></g><g id="e02d6ce8-3889-478c-907a-d1ddc9ad1034-ef34a924-74ea-4b78-8b3d-081b86ccf4a5"><g cursor="cell"><line x1="16" y1="194" x2="304" y2="28" stroke="red" stroke-width="8" opacity="0"></line><line x1="16" y1="194" x2="304" y2="28" stroke="#9c27b0" stroke-width="2" stroke-dasharray="8,6" stroke-linecap="butt"></line></g></g><g id="ffb03961-cc58-4911-ae20-20f5b0aacc64-5d5c09b5-7f13-4c72-b792-2b24d416718a"><g cursor="cell"><line x1="-480" y1="518" x2="-224" y2="537" stroke="red" stroke-width="8" opacity="0"></line><line x1="-480" y1="518" x2="-224" y2="537" stroke="#4286c5" stroke-width="2" stroke-linecap="round"></line></g></g><g id="ffb03961-cc58-4911-ae20-20f5b0aacc64-5e3dfb32-fccf-49fb-ae89-cac200789e63"><g cursor="cell"><line x1="-544" y1="481" x2="-544" y2="352" stroke="red" stroke-width="8" opacity="0"></line><line x1="-544" y1="481" x2="-544" y2="352" stroke="#4286c5" stroke-width="2" stroke-linecap="round"></line></g></g><g id="6bfec491-ea55-496f-a5a6-460c4df19e08-113155fe-7774-4b34-970c-55d281ab998a"><g cursor="cell"><line x1="-208" y1="694" x2="-512" y2="352" stroke="red" stroke-width="8" opacity="0"></line><line x1="-208" y1="694" x2="-512" y2="352" stroke="#4286c5" stroke-width="2" stroke-linecap="round"></line></g></g><g id="1afa2a45-b8a1-4ea7-ae33-9f4a42662d3c-18fa8344-d47f-4cba-9766-3f6263b220a7"><g cursor="cell"><line x1="-432" y1="231" x2="-240" y2="120" stroke="red" stroke-width="8" opacity="0"></line><line x1="-432" y1="231" x2="-240" y2="120" stroke="#9c27b0" stroke-width="2" stroke-dasharray="8,6" stroke-linecap="butt"></line></g></g><g id="18fa8344-d47f-4cba-9766-3f6263b220a7-28b62e0e-c534-464a-a63b-65ab44a7ffec"><g cursor="cell"><line x1="-176" y1="83" x2="112" y2="-83" stroke="red" stroke-width="8" opacity="0"></line><line x1="-176" y1="83" x2="112" y2="-83" stroke="#9c27b0" stroke-width="2" stroke-dasharray="8,6" stroke-linecap="butt"></line></g></g></g><g pointer-events="auto"></g><g pointer-events="auto"></g><g pointer-events="auto"><g><g class="cloud-maps_raptor_node" id="f24da79e-a91b-44f0-8491-d2233d782e8b"><svg x="-80" y="472" overflow="visible"><g transform="scale(1.4131949617798671) matrix(0.707 0.409 -0.707 0.409 0 0)"><circle cx="0" cy="0" fill="transparent" r="39"></circle><svg width="64" height="64" x="-32" y="-32" style="fill: rgb(255, 255, 255);"><svg xmlns="http://www.w3.org/2000/svg" width="64" height="64" viewBox="0 0 64 64"><defs><linearGradient id="Elastic-Container-Kubernetes_svg__a" x1="0%" x2="100%" y1="100%" y2="0%"><stop offset="0%" stop-color="#C8511B"></stop><stop offset="100%" stop-color="#F90"></stop></linearGradient></defs><g fill="none" fill-rule="evenodd"><g fill="url(#Elastic-Container-Kubernetes_svg__a)"><path d="M0 0h64v64H0z"></path></g><g fill="#FFF"><path d="m37.708 25-5.058 6.34 5.317 6.681h-2.215L31 32.001v6h-2V25h2v5.24l4.463-5.24h2.245ZM50 36.382l-6-3V25a.999.999 0 0 0-.515-.874L35 19.412V12.75l15 8.822v14.81Zm1.507-16.244-17-10a1.001 1.001 0 0 0-1.507.863v9c0 .362.197.697.515.873L42 25.588V34c0 .38.214.725.553.895l8 4a1.005 1.005 0 0 0 .972-.044c.295-.183.475-.504.475-.85V21c0-.355-.188-.683-.493-.863ZM32 51.828 15 41.439V21.554l14-8.75v6.642l-7.53 4.706A1 1 0 0 0 21 25v13a1 1 0 0 0 .485.857l10 6a1 1 0 0 0 .994.021l10.509-5.732 5.047 2.883L32 51.828Zm18.496-10.696-7-4a.998.998 0 0 0-.975-.01l-10.498 5.726L23 37.434v-11.88l7.53-4.706A1 1 0 0 0 31 20v-9a1 1 0 0 0-1.53-.847l-16 10A1 1 0 0 0 13 21v21c0 .348.182.671.479.854l18 11a1.004 1.004 0 0 0 1.042 0l18-11a1 1 0 0 0-.025-1.722Z"></path></g></g></svg></svg></g></svg></g></g><g><g class="cloud-maps_raptor_node" id="07dcc1ac-95b6-4686-b765-239901680076"><svg x="-720" y="657" overflow="visible"><g transform="scale(1.4131949617798671) matrix(0.707 0.409 -0.707 0.409 0 0)"><circle cx="0" cy="0" fill="transparent" r="39"></circle><svg width="64" height="64" x="-32" y="-32" style="fill: rgb(255, 255, 255);"><svg xmlns="http://www.w3.org/2000/svg" width="64" height="64" viewBox="0 0 64 64"><defs><linearGradient id="Elastic-Container-Kubernetes_svg__a" x1="0%" x2="100%" y1="100%" y2="0%"><stop offset="0%" stop-color="#C8511B"></stop><stop offset="100%" stop-color="#F90"></stop></linearGradient></defs><g fill="none" fill-rule="evenodd"><g fill="url(#Elastic-Container-Kubernetes_svg__a)"><path d="M0 0h64v64H0z"></path></g><g fill="#FFF"><path d="m37.708 25-5.058 6.34 5.317 6.681h-2.215L31 32.001v6h-2V25h2v5.24l4.463-5.24h2.245ZM50 36.382l-6-3V25a.999.999 0 0 0-.515-.874L35 19.412V12.75l15 8.822v14.81Zm1.507-16.244-17-10a1.001 1.001 0 0 0-1.507.863v9c0 .362.197.697.515.873L42 25.588V34c0 .38.214.725.553.895l8 4a1.005 1.005 0 0 0 .972-.044c.295-.183.475-.504.475-.85V21c0-.355-.188-.683-.493-.863ZM32 51.828 15 41.439V21.554l14-8.75v6.642l-7.53 4.706A1 1 0 0 0 21 25v13a1 1 0 0 0 .485.857l10 6a1 1 0 0 0 .994.021l10.509-5.732 5.047 2.883L32 51.828Zm18.496-10.696-7-4a.998.998 0 0 0-.975-.01l-10.498 5.726L23 37.434v-11.88l7.53-4.706A1 1 0 0 0 31 20v-9a1 1 0 0 0-1.53-.847l-16 10A1 1 0 0 0 13 21v21c0 .348.182.671.479.854l18 11a1.004 1.004 0 0 0 1.042 0l18-11a1 1 0 0 0-.025-1.722Z"></path></g></g></svg></svg></g></svg></g></g><g><g class="cloud-maps_raptor_node" id="1afa2a45-b8a1-4ea7-ae33-9f4a42662d3c"><svg x="-464" y="250" overflow="visible"><g transform="scale(1.4131949617798671) matrix(0.707 0.409 -0.707 0.409 0 0)"><circle cx="0" cy="0" fill="transparent" r="39"></circle><svg width="64" height="64" x="-32" y="-32" style="fill: rgb(255, 255, 255);"><svg xmlns="http://www.w3.org/2000/svg" width="64" height="64" viewBox="0 0 64 64"><defs><linearGradient id="Elastic-Container-Kubernetes_svg__a" x1="0%" x2="100%" y1="100%" y2="0%"><stop offset="0%" stop-color="#C8511B"></stop><stop offset="100%" stop-color="#F90"></stop></linearGradient></defs><g fill="none" fill-rule="evenodd"><g fill="url(#Elastic-Container-Kubernetes_svg__a)"><path d="M0 0h64v64H0z"></path></g><g fill="#FFF"><path d="m37.708 25-5.058 6.34 5.317 6.681h-2.215L31 32.001v6h-2V25h2v5.24l4.463-5.24h2.245ZM50 36.382l-6-3V25a.999.999 0 0 0-.515-.874L35 19.412V12.75l15 8.822v14.81Zm1.507-16.244-17-10a1.001 1.001 0 0 0-1.507.863v9c0 .362.197.697.515.873L42 25.588V34c0 .38.214.725.553.895l8 4a1.005 1.005 0 0 0 .972-.044c.295-.183.475-.504.475-.85V21c0-.355-.188-.683-.493-.863ZM32 51.828 15 41.439V21.554l14-8.75v6.642l-7.53 4.706A1 1 0 0 0 21 25v13a1 1 0 0 0 .485.857l10 6a1 1 0 0 0 .994.021l10.509-5.732 5.047 2.883L32 51.828Zm18.496-10.696-7-4a.998.998 0 0 0-.975-.01l-10.498 5.726L23 37.434v-11.88l7.53-4.706A1 1 0 0 0 31 20v-9a1 1 0 0 0-1.53-.847l-16 10A1 1 0 0 0 13 21v21c0 .348.182.671.479.854l18 11a1.004 1.004 0 0 0 1.042 0l18-11a1 1 0 0 0-.025-1.722Z"></path></g></g></svg></svg></g></svg></g></g><g><g class="cloud-maps_raptor_node" id="ea24123e-93f9-4d51-aa7b-d3fc8a14ca0a"><svg x="-848" y="324" overflow="visible"><g transform="scale(1.4131949617798671) matrix(0.707 0.409 -0.707 0.409 0 0)"><circle cx="0" cy="0" fill="transparent" r="39"></circle><svg width="64" height="64" x="-32" y="-32" style="fill: rgb(255, 255, 255);"><svg xmlns="http://www.w3.org/2000/svg" width="64" height="64" viewBox="0 0 64 64"><defs><linearGradient id="Elastic-Container-Kubernetes_svg__a" x1="0%" x2="100%" y1="100%" y2="0%"><stop offset="0%" stop-color="#C8511B"></stop><stop offset="100%" stop-color="#F90"></stop></linearGradient></defs><g fill="none" fill-rule="evenodd"><g fill="url(#Elastic-Container-Kubernetes_svg__a)"><path d="M0 0h64v64H0z"></path></g><g fill="#FFF"><path d="m37.708 25-5.058 6.34 5.317 6.681h-2.215L31 32.001v6h-2V25h2v5.24l4.463-5.24h2.245ZM50 36.382l-6-3V25a.999.999 0 0 0-.515-.874L35 19.412V12.75l15 8.822v14.81Zm1.507-16.244-17-10a1.001 1.001 0 0 0-1.507.863v9c0 .362.197.697.515.873L42 25.588V34c0 .38.214.725.553.895l8 4a1.005 1.005 0 0 0 .972-.044c.295-.183.475-.504.475-.85V21c0-.355-.188-.683-.493-.863ZM32 51.828 15 41.439V21.554l14-8.75v6.642l-7.53 4.706A1 1 0 0 0 21 25v13a1 1 0 0 0 .485.857l10 6a1 1 0 0 0 .994.021l10.509-5.732 5.047 2.883L32 51.828Zm18.496-10.696-7-4a.998.998 0 0 0-.975-.01l-10.498 5.726L23 37.434v-11.88l7.53-4.706A1 1 0 0 0 31 20v-9a1 1 0 0 0-1.53-.847l-16 10A1 1 0 0 0 13 21v21c0 .348.182.671.479.854l18 11a1.004 1.004 0 0 0 1.042 0l18-11a1 1 0 0 0-.025-1.722Z"></path></g></g></svg></svg></g></svg></g></g><g><g class="cloud-maps_raptor_node" id="ffb03961-cc58-4911-ae20-20f5b0aacc64"><svg x="-512" y="500" overflow="visible"><g transform="scale(1.4131949617798671) matrix(0.707 0.409 -0.707 0.409 0 0)"><circle cx="0" cy="0" fill="transparent" r="39"></circle><svg width="64" height="64" x="-32" y="-32" style="fill: rgb(255, 255, 255);"><svg xmlns="http://www.w3.org/2000/svg" width="64" height="64" viewBox="0 0 64 64"><defs><linearGradient id="Elastic-Container-Kubernetes_svg__a" x1="0%" x2="100%" y1="100%" y2="0%"><stop offset="0%" stop-color="#C8511B"></stop><stop offset="100%" stop-color="#F90"></stop></linearGradient></defs><g fill="none" fill-rule="evenodd"><g fill="url(#Elastic-Container-Kubernetes_svg__a)"><path d="M0 0h64v64H0z"></path></g><g fill="#FFF"><path d="m37.708 25-5.058 6.34 5.317 6.681h-2.215L31 32.001v6h-2V25h2v5.24l4.463-5.24h2.245ZM50 36.382l-6-3V25a.999.999 0 0 0-.515-.874L35 19.412V12.75l15 8.822v14.81Zm1.507-16.244-17-10a1.001 1.001 0 0 0-1.507.863v9c0 .362.197.697.515.873L42 25.588V34c0 .38.214.725.553.895l8 4a1.005 1.005 0 0 0 .972-.044c.295-.183.475-.504.475-.85V21c0-.355-.188-.683-.493-.863ZM32 51.828 15 41.439V21.554l14-8.75v6.642l-7.53 4.706A1 1 0 0 0 21 25v13a1 1 0 0 0 .485.857l10 6a1 1 0 0 0 .994.021l10.509-5.732 5.047 2.883L32 51.828Zm18.496-10.696-7-4a.998.998 0 0 0-.975-.01l-10.498 5.726L23 37.434v-11.88l7.53-4.706A1 1 0 0 0 31 20v-9a1 1 0 0 0-1.53-.847l-16 10A1 1 0 0 0 13 21v21c0 .348.182.671.479.854l18 11a1.004 1.004 0 0 0 1.042 0l18-11a1 1 0 0 0-.025-1.722Z"></path></g></g></svg></svg></g></svg></g></g><g><g class="cloud-maps_raptor_node" id="6bfec491-ea55-496f-a5a6-460c4df19e08"><svg x="-176" y="712" overflow="visible"><g transform="scale(1.4131949617798671) matrix(0.707 0.409 -0.707 0.409 0 0)"><circle cx="0" cy="0" fill="transparent" r="39"></circle><svg width="64" height="64" x="-32" y="-32" style="fill: rgb(255, 255, 255);"><svg xmlns="http://www.w3.org/2000/svg" width="64" height="64" viewBox="0 0 64 64"><defs><linearGradient id="Elastic-Container-Kubernetes_svg__a" x1="0%" x2="100%" y1="100%" y2="0%"><stop offset="0%" stop-color="#C8511B"></stop><stop offset="100%" stop-color="#F90"></stop></linearGradient></defs><g fill="none" fill-rule="evenodd"><g fill="url(#Elastic-Container-Kubernetes_svg__a)"><path d="M0 0h64v64H0z"></path></g><g fill="#FFF"><path d="m37.708 25-5.058 6.34 5.317 6.681h-2.215L31 32.001v6h-2V25h2v5.24l4.463-5.24h2.245ZM50 36.382l-6-3V25a.999.999 0 0 0-.515-.874L35 19.412V12.75l15 8.822v14.81Zm1.507-16.244-17-10a1.001 1.001 0 0 0-1.507.863v9c0 .362.197.697.515.873L42 25.588V34c0 .38.214.725.553.895l8 4a1.005 1.005 0 0 0 .972-.044c.295-.183.475-.504.475-.85V21c0-.355-.188-.683-.493-.863ZM32 51.828 15 41.439V21.554l14-8.75v6.642l-7.53 4.706A1 1 0 0 0 21 25v13a1 1 0 0 0 .485.857l10 6a1 1 0 0 0 .994.021l10.509-5.732 5.047 2.883L32 51.828Zm18.496-10.696-7-4a.998.998 0 0 0-.975-.01l-10.498 5.726L23 37.434v-11.88l7.53-4.706A1 1 0 0 0 31 20v-9a1 1 0 0 0-1.53-.847l-16 10A1 1 0 0 0 13 21v21c0 .348.182.671.479.854l18 11a1.004 1.004 0 0 0 1.042 0l18-11a1 1 0 0 0-.025-1.722Z"></path></g></g></svg></svg></g></svg></g></g><g><g class="cloud-maps_raptor_node" id="ab7ea802-2ed5-4945-abc8-b78dec7e6a63"><svg x="-336" y="28" overflow="visible"><g transform="scale(1.4131949617798671) matrix(0.707 0.409 -0.707 0.409 0 0)"><circle cx="0" cy="0" fill="transparent" r="39"></circle><svg width="64" height="64" x="-32" y="-32" style="fill: rgb(255, 255, 255);"><svg xmlns="http://www.w3.org/2000/svg" width="64" height="64" viewBox="0 0 64 64"><defs><linearGradient id="Elastic-Load-Balancing_svg__a" x1="0%" x2="100%" y1="100%" y2="0%"><stop offset="0%" stop-color="#4D27A8"></stop><stop offset="100%" stop-color="#A166FF"></stop></linearGradient></defs><g fill="none" fill-rule="evenodd"><g fill="url(#Elastic-Load-Balancing_svg__a)"><path d="M0 0h64v64H0z"></path></g><path fill="#FFF" d="M23.5 42C17.71 42 13 37.29 13 31.5S17.71 21 23.5 21 34 25.71 34 31.5 29.29 42 23.5 42M48 48c0 1.654-1.346 3-3 3s-3-1.346-3-3 1.346-3 3-3 3 1.346 3 3m-3-35c1.654 0 3 1.346 3 3s-1.346 3-3 3-3-1.346-3-3 1.346-3 3-3m3 16c1.654 0 3 1.346 3 3s-1.346 3-3 3-3-1.346-3-3 1.346-3 3-3m-12.099 4h7.201A5.007 5.007 0 0 0 48 37c2.757 0 5-2.243 5-5s-2.243-5-5-5a5.007 5.007 0 0 0-4.898 4h-7.127a12.446 12.446 0 0 0-.879-4.144l7.703-6.389A4.94 4.94 0 0 0 45 21c2.757 0 5-2.243 5-5s-2.243-5-5-5-5 2.243-5 5c0 1.224.459 2.331 1.191 3.201l-7.019 5.823C31.977 21.42 28.021 19 23.5 19 16.607 19 11 24.607 11 31.5S16.607 44 23.5 44c4.243 0 7.993-2.129 10.254-5.371l7.437 6.17C40.459 45.669 40 46.776 40 48c0 2.757 2.243 5 5 5s5-2.243 5-5-2.243-5-5-5a4.94 4.94 0 0 0-2.201.533l-8.029-6.66c.574-1.2.966-2.5 1.131-3.873"></path></g></svg></svg></g></svg></g></g><g><g class="cloud-maps_raptor_node" id="18fa8344-d47f-4cba-9766-3f6263b220a7"><svg x="-208" y="102" overflow="visible"><g transform="scale(1.4131949617798671) matrix(0.707 0.409 -0.707 0.409 0 0)"><circle cx="0" cy="0" fill="transparent" r="39"></circle><svg width="64" height="64" x="-32" y="-32" style="fill: rgb(255, 255, 255);"><svg xmlns="http://www.w3.org/2000/svg" width="64" height="64" viewBox="0 0 64 64"><defs><linearGradient id="Elastic-Load-Balancing_svg__a" x1="0%" x2="100%" y1="100%" y2="0%"><stop offset="0%" stop-color="#4D27A8"></stop><stop offset="100%" stop-color="#A166FF"></stop></linearGradient></defs><g fill="none" fill-rule="evenodd"><g fill="url(#Elastic-Load-Balancing_svg__a)"><path d="M0 0h64v64H0z"></path></g><path fill="#FFF" d="M23.5 42C17.71 42 13 37.29 13 31.5S17.71 21 23.5 21 34 25.71 34 31.5 29.29 42 23.5 42M48 48c0 1.654-1.346 3-3 3s-3-1.346-3-3 1.346-3 3-3 3 1.346 3 3m-3-35c1.654 0 3 1.346 3 3s-1.346 3-3 3-3-1.346-3-3 1.346-3 3-3m3 16c1.654 0 3 1.346 3 3s-1.346 3-3 3-3-1.346-3-3 1.346-3 3-3m-12.099 4h7.201A5.007 5.007 0 0 0 48 37c2.757 0 5-2.243 5-5s-2.243-5-5-5a5.007 5.007 0 0 0-4.898 4h-7.127a12.446 12.446 0 0 0-.879-4.144l7.703-6.389A4.94 4.94 0 0 0 45 21c2.757 0 5-2.243 5-5s-2.243-5-5-5-5 2.243-5 5c0 1.224.459 2.331 1.191 3.201l-7.019 5.823C31.977 21.42 28.021 19 23.5 19 16.607 19 11 24.607 11 31.5S16.607 44 23.5 44c4.243 0 7.993-2.129 10.254-5.371l7.437 6.17C40.459 45.669 40 46.776 40 48c0 2.757 2.243 5 5 5s5-2.243 5-5-2.243-5-5-5a4.94 4.94 0 0 0-2.201.533l-8.029-6.66c.574-1.2.966-2.5 1.131-3.873"></path></g></svg></svg></g></svg></g></g><g><g class="cloud-maps_raptor_node" id="e02d6ce8-3889-478c-907a-d1ddc9ad1034"><svg x="-16" y="213" overflow="visible"><g transform="scale(1.4131949617798671) matrix(0.707 0.409 -0.707 0.409 0 0)"><circle cx="0" cy="0" fill="transparent" r="39"></circle><svg width="64" height="64" x="-32" y="-32" style="fill: rgb(255, 255, 255);"><svg xmlns="http://www.w3.org/2000/svg" width="64" height="64" viewBox="0 0 64 64"><defs><linearGradient id="Elastic-Load-Balancing_svg__a" x1="0%" x2="100%" y1="100%" y2="0%"><stop offset="0%" stop-color="#4D27A8"></stop><stop offset="100%" stop-color="#A166FF"></stop></linearGradient></defs><g fill="none" fill-rule="evenodd"><g fill="url(#Elastic-Load-Balancing_svg__a)"><path d="M0 0h64v64H0z"></path></g><path fill="#FFF" d="M23.5 42C17.71 42 13 37.29 13 31.5S17.71 21 23.5 21 34 25.71 34 31.5 29.29 42 23.5 42M48 48c0 1.654-1.346 3-3 3s-3-1.346-3-3 1.346-3 3-3 3 1.346 3 3m-3-35c1.654 0 3 1.346 3 3s-1.346 3-3 3-3-1.346-3-3 1.346-3 3-3m3 16c1.654 0 3 1.346 3 3s-1.346 3-3 3-3-1.346-3-3 1.346-3 3-3m-12.099 4h7.201A5.007 5.007 0 0 0 48 37c2.757 0 5-2.243 5-5s-2.243-5-5-5a5.007 5.007 0 0 0-4.898 4h-7.127a12.446 12.446 0 0 0-.879-4.144l7.703-6.389A4.94 4.94 0 0 0 45 21c2.757 0 5-2.243 5-5s-2.243-5-5-5-5 2.243-5 5c0 1.224.459 2.331 1.191 3.201l-7.019 5.823C31.977 21.42 28.021 19 23.5 19 16.607 19 11 24.607 11 31.5S16.607 44 23.5 44c4.243 0 7.993-2.129 10.254-5.371l7.437 6.17C40.459 45.669 40 46.776 40 48c0 2.757 2.243 5 5 5s5-2.243 5-5-2.243-5-5-5a4.94 4.94 0 0 0-2.201.533l-8.029-6.66c.574-1.2.966-2.5 1.131-3.873"></path></g></svg></svg></g></svg></g></g><g><g class="cloud-maps_raptor_node" id="ac4f300d-9b2a-4221-a567-63c432555827"><svg x="160" y="315" overflow="visible"><g transform="scale(1.4131949617798671) matrix(0.707 0.409 -0.707 0.409 0 0)"><circle cx="0" cy="0" fill="transparent" r="39"></circle><svg width="64" height="64" x="-32" y="-32" style="fill: rgb(255, 255, 255);"><svg xmlns="http://www.w3.org/2000/svg" width="64" height="64" viewBox="0 0 64 64"><defs><linearGradient id="Elastic-Load-Balancing_svg__a" x1="0%" x2="100%" y1="100%" y2="0%"><stop offset="0%" stop-color="#4D27A8"></stop><stop offset="100%" stop-color="#A166FF"></stop></linearGradient></defs><g fill="none" fill-rule="evenodd"><g fill="url(#Elastic-Load-Balancing_svg__a)"><path d="M0 0h64v64H0z"></path></g><path fill="#FFF" d="M23.5 42C17.71 42 13 37.29 13 31.5S17.71 21 23.5 21 34 25.71 34 31.5 29.29 42 23.5 42M48 48c0 1.654-1.346 3-3 3s-3-1.346-3-3 1.346-3 3-3 3 1.346 3 3m-3-35c1.654 0 3 1.346 3 3s-1.346 3-3 3-3-1.346-3-3 1.346-3 3-3m3 16c1.654 0 3 1.346 3 3s-1.346 3-3 3-3-1.346-3-3 1.346-3 3-3m-12.099 4h7.201A5.007 5.007 0 0 0 48 37c2.757 0 5-2.243 5-5s-2.243-5-5-5a5.007 5.007 0 0 0-4.898 4h-7.127a12.446 12.446 0 0 0-.879-4.144l7.703-6.389A4.94 4.94 0 0 0 45 21c2.757 0 5-2.243 5-5s-2.243-5-5-5-5 2.243-5 5c0 1.224.459 2.331 1.191 3.201l-7.019 5.823C31.977 21.42 28.021 19 23.5 19 16.607 19 11 24.607 11 31.5S16.607 44 23.5 44c4.243 0 7.993-2.129 10.254-5.371l7.437 6.17C40.459 45.669 40 46.776 40 48c0 2.757 2.243 5 5 5s5-2.243 5-5-2.243-5-5-5a4.94 4.94 0 0 0-2.201.533l-8.029-6.66c.574-1.2.966-2.5 1.131-3.873"></path></g></svg></svg></g></svg></g></g><g><g class="cloud-maps_raptor_node" id="3fb2f36f-651d-44d9-b676-966d4668faf2"><svg x="336" y="416" overflow="visible"><g transform="scale(1.4131949617798671) matrix(0.707 0.409 -0.707 0.409 0 0)"><circle cx="0" cy="0" fill="transparent" r="39"></circle><svg width="64" height="64" x="-32" y="-32" style="fill: rgb(255, 255, 255);"><svg xmlns="http://www.w3.org/2000/svg" width="64" height="64" viewBox="0 0 64 64"><defs><linearGradient id="Elastic-Load-Balancing_svg__a" x1="0%" x2="100%" y1="100%" y2="0%"><stop offset="0%" stop-color="#4D27A8"></stop><stop offset="100%" stop-color="#A166FF"></stop></linearGradient></defs><g fill="none" fill-rule="evenodd"><g fill="url(#Elastic-Load-Balancing_svg__a)"><path d="M0 0h64v64H0z"></path></g><path fill="#FFF" d="M23.5 42C17.71 42 13 37.29 13 31.5S17.71 21 23.5 21 34 25.71 34 31.5 29.29 42 23.5 42M48 48c0 1.654-1.346 3-3 3s-3-1.346-3-3 1.346-3 3-3 3 1.346 3 3m-3-35c1.654 0 3 1.346 3 3s-1.346 3-3 3-3-1.346-3-3 1.346-3 3-3m3 16c1.654 0 3 1.346 3 3s-1.346 3-3 3-3-1.346-3-3 1.346-3 3-3m-12.099 4h7.201A5.007 5.007 0 0 0 48 37c2.757 0 5-2.243 5-5s-2.243-5-5-5a5.007 5.007 0 0 0-4.898 4h-7.127a12.446 12.446 0 0 0-.879-4.144l7.703-6.389A4.94 4.94 0 0 0 45 21c2.757 0 5-2.243 5-5s-2.243-5-5-5-5 2.243-5 5c0 1.224.459 2.331 1.191 3.201l-7.019 5.823C31.977 21.42 28.021 19 23.5 19 16.607 19 11 24.607 11 31.5S16.607 44 23.5 44c4.243 0 7.993-2.129 10.254-5.371l7.437 6.17C40.459 45.669 40 46.776 40 48c0 2.757 2.243 5 5 5s5-2.243 5-5-2.243-5-5-5a4.94 4.94 0 0 0-2.201.533l-8.029-6.66c.574-1.2.966-2.5 1.131-3.873"></path></g></svg></svg></g></svg></g></g></g><g pointer-events="auto"><g><g class="cloud-maps_raptor_node" id="cce3d119-1fe7-4934-8aec-23a29b6bb5a3"><svg x="-160" y="481" overflow="visible"><text stroke="#ffffff" stroke-width="0" font-family="Noto Sans" y="36.5" font-size="25pt" fill="#9e9e9e" font-weight="bold" transform="matrix(0.707 0.409 -0.707 0.409 0 0)" xml:space="preserve"><tspan x="8" dy="0">Boot</tspan><tspan x="8" dy="1.1em">Node</tspan></text><text font-family="Noto Sans" y="36.5" font-size="25pt" fill="#9e9e9e" font-weight="bold" transform="matrix(0.707 0.409 -0.707 0.409 0 0)" xml:space="preserve"><tspan x="8" dy="0">Boot</tspan><tspan x="8" dy="1.1em">Node</tspan></text></svg></g></g><g><g class="cloud-maps_raptor_node" id="26eaf43b-4cff-4124-b5f5-38599b00fa9b"><svg x="-832" y="666" overflow="visible"><text stroke="#ffffff" stroke-width="0" font-family="Noto Sans" y="36.5" font-size="25pt" fill="#9e9e9e" font-weight="bold" transform="matrix(0.707 0.409 -0.707 0.409 0 0)" xml:space="preserve"><tspan x="8" dy="0">Transaction</tspan><tspan x="8" dy="1.1em">Bot</tspan></text><text font-family="Noto Sans" y="36.5" font-size="25pt" fill="#9e9e9e" font-weight="bold" transform="matrix(0.707 0.409 -0.707 0.409 0 0)" xml:space="preserve"><tspan x="8" dy="0">Transaction</tspan><tspan x="8" dy="1.1em">Bot</tspan></text></svg></g></g><g><g class="cloud-maps_raptor_node" id="877725e8-f9c1-4ce8-ba7a-ff7e07f42c22"><svg x="-560" y="268" overflow="visible"><text stroke="#ffffff" stroke-width="0" font-family="Noto Sans" y="36.5" font-size="25pt" fill="#9e9e9e" font-weight="bold" transform="matrix(0.707 0.409 -0.707 0.409 0 0)" xml:space="preserve"><tspan x="8" dy="0">Anvil</tspan></text><text font-family="Noto Sans" y="36.5" font-size="25pt" fill="#9e9e9e" font-weight="bold" transform="matrix(0.707 0.409 -0.707 0.409 0 0)" xml:space="preserve"><tspan x="8" dy="0">Anvil</tspan></text></svg></g></g><g><g class="cloud-maps_raptor_node" id="19f1d963-4fdc-443c-b1f9-31fef1e6ae23"><svg x="-944" y="342" overflow="visible"><text stroke="#ffffff" stroke-width="0" font-family="Noto Sans" y="36.5" font-size="25pt" fill="#9e9e9e" font-weight="bold" transform="matrix(0.707 0.409 -0.707 0.409 0 0)" xml:space="preserve"><tspan x="8" dy="0">Prover</tspan></text><text font-family="Noto Sans" y="36.5" font-size="25pt" fill="#9e9e9e" font-weight="bold" transform="matrix(0.707 0.409 -0.707 0.409 0 0)" xml:space="preserve"><tspan x="8" dy="0">Prover</tspan></text></svg></g></g><g><g class="cloud-maps_raptor_node" id="3b47fcef-4f2c-4048-9e57-0dac18623b63"><svg x="-592" y="527" overflow="visible"><text stroke="#ffffff" stroke-width="0" font-family="Noto Sans" y="36.5" font-size="25pt" fill="#9e9e9e" font-weight="bold" transform="matrix(0.707 0.409 -0.707 0.409 0 0)" xml:space="preserve"><tspan x="8" dy="0">PXE</tspan></text><text font-family="Noto Sans" y="36.5" font-size="25pt" fill="#9e9e9e" font-weight="bold" transform="matrix(0.707 0.409 -0.707 0.409 0 0)" xml:space="preserve"><tspan x="8" dy="0">PXE</tspan></text></svg></g></g><g><g class="cloud-maps_raptor_node" id="aff928a3-c6eb-48ad-8a00-21b0db820593"><svg x="-288" y="722" overflow="visible"><text stroke="#ffffff" stroke-width="0" font-family="Noto Sans" y="36.5" font-size="25pt" fill="#9e9e9e" font-weight="bold" transform="matrix(0.707 0.409 -0.707 0.409 0 0)" xml:space="preserve"><tspan x="8" dy="0">Validator</tspan></text><text font-family="Noto Sans" y="36.5" font-size="25pt" fill="#9e9e9e" font-weight="bold" transform="matrix(0.707 0.409 -0.707 0.409 0 0)" xml:space="preserve"><tspan x="8" dy="0">Validator</tspan></text></svg></g></g><g><g class="cloud-maps_raptor_node" id="693b23b0-336c-4f34-bbf5-1f5a4493d332" transform="translate(0 0)"><svg x="-528" y="-120" overflow="visible"><text stroke="#ffffff" stroke-width="0" font-family="Noto Sans" y="36.5" font-size="25pt" fill="#673ab7" font-weight="bold" transform="matrix(0.707 0.409 -0.707 0.409 0 0)" xml:space="preserve"><tspan x="8" dy="0">Load </tspan><tspan x="8" dy="1.1em">Balancers</tspan></text><text font-family="Noto Sans" y="36.5" font-size="25pt" fill="#673ab7" font-weight="bold" transform="matrix(0.707 0.409 -0.707 0.409 0 0)" xml:space="preserve"><tspan x="8" dy="0">Load </tspan><tspan x="8" dy="1.1em">Balancers</tspan></text></svg></g></g></g></g></svg>