<svg xmlns="http://www.w3.org/2000/svg" viewBox="0 0 1180 1046" width="1180" height="1046" role="img"><defs><marker id="ah6b7688" viewBox="0 0 12 12" refX="9.4" refY="6" markerWidth="9" markerHeight="9" orient="auto-start-reverse"><path d="M0.5,0.5 L12,6 L0.5,11.5 L4,6 Z" fill="#6b7688"/></marker><marker id="ahs6b7688" viewBox="0 0 12 12" refX="9.4" refY="6" markerWidth="6.4" markerHeight="6.4" orient="auto-start-reverse"><path d="M0.5,0.5 L12,6 L0.5,11.5 L4,6 Z" fill="#6b7688"/></marker><marker id="ah8aa0c0" viewBox="0 0 12 12" refX="9.4" refY="6" markerWidth="9" markerHeight="9" orient="auto-start-reverse"><path d="M0.5,0.5 L12,6 L0.5,11.5 L4,6 Z" fill="#8aa0c0"/></marker><marker id="ahs8aa0c0" viewBox="0 0 12 12" refX="9.4" refY="6" markerWidth="6.4" markerHeight="6.4" orient="auto-start-reverse"><path d="M0.5,0.5 L12,6 L0.5,11.5 L4,6 Z" fill="#8aa0c0"/></marker><marker id="ah34d399" viewBox="0 0 12 12" refX="9.4" refY="6" markerWidth="9" markerHeight="9" orient="auto-start-reverse"><path d="M0.5,0.5 L12,6 L0.5,11.5 L4,6 Z" fill="#34d399"/></marker><marker id="ahs34d399" viewBox="0 0 12 12" refX="9.4" refY="6" markerWidth="6.4" markerHeight="6.4" orient="auto-start-reverse"><path d="M0.5,0.5 L12,6 L0.5,11.5 L4,6 Z" fill="#34d399"/></marker><marker id="ah4b9fff" viewBox="0 0 12 12" refX="9.4" refY="6" markerWidth="9" markerHeight="9" orient="auto-start-reverse"><path d="M0.5,0.5 L12,6 L0.5,11.5 L4,6 Z" fill="#4b9fff"/></marker><marker id="ahs4b9fff" viewBox="0 0 12 12" refX="9.4" refY="6" markerWidth="6.4" markerHeight="6.4" orient="auto-start-reverse"><path d="M0.5,0.5 L12,6 L0.5,11.5 L4,6 Z" fill="#4b9fff"/></marker><marker id="aha78bfa" viewBox="0 0 12 12" refX="9.4" refY="6" markerWidth="9" markerHeight="9" orient="auto-start-reverse"><path d="M0.5,0.5 L12,6 L0.5,11.5 L4,6 Z" fill="#a78bfa"/></marker><marker id="ahsa78bfa" viewBox="0 0 12 12" refX="9.4" refY="6" markerWidth="6.4" markerHeight="6.4" orient="auto-start-reverse"><path d="M0.5,0.5 L12,6 L0.5,11.5 L4,6 Z" fill="#a78bfa"/></marker><marker id="ahf5b544" viewBox="0 0 12 12" refX="9.4" refY="6" markerWidth="9" markerHeight="9" orient="auto-start-reverse"><path d="M0.5,0.5 L12,6 L0.5,11.5 L4,6 Z" fill="#f5b544"/></marker><marker id="ahsf5b544" viewBox="0 0 12 12" refX="9.4" refY="6" markerWidth="6.4" markerHeight="6.4" orient="auto-start-reverse"><path d="M0.5,0.5 L12,6 L0.5,11.5 L4,6 Z" fill="#f5b544"/></marker><marker id="ah5a6683" viewBox="0 0 12 12" refX="9.4" refY="6" markerWidth="9" markerHeight="9" orient="auto-start-reverse"><path d="M0.5,0.5 L12,6 L0.5,11.5 L4,6 Z" fill="#5a6683"/></marker><marker id="ahs5a6683" viewBox="0 0 12 12" refX="9.4" refY="6" markerWidth="6.4" markerHeight="6.4" orient="auto-start-reverse"><path d="M0.5,0.5 L12,6 L0.5,11.5 L4,6 Z" fill="#5a6683"/></marker></defs><rect x="0" y="0" width="1180" height="1046" fill="#0b0e14"/><rect x="1" y="1" width="1178" height="1044" rx="16" fill="none" stroke="#212a39"/><text x="34" y="44" font-family="-apple-system, BlinkMacSystemFont, 'Segoe UI', Roboto, Helvetica, Arial, sans-serif" font-size="17" font-weight="700" fill="#e6e9ef">The MsmV2 GPU pipeline — a cuZK-derived Pippenger MSM</text><text x="34" y="63" font-family="-apple-system, BlinkMacSystemFont, 'Segoe UI', Roboto, Helvetica, Arial, sans-serif" font-size="12.5" fill="#9aa4b2">One BN254 MSM as WebGPU compute passes: Booth recode → counting-sort transpose → pair-tree accumulate → bucket reduction → Horner combine.</text><rect x="60" y="96" width="320" height="78" rx="11" fill="#1b1633" stroke="#a78bfa" stroke-width="1.4"/><path d="M63,105 a6,6 0 0 1 5,-6 v72 a6,6 0 0 1 -5,-6 Z" fill="#a78bfa"/><text x="76" y="121" font-family="ui-monospace, SFMono-Regular, Menlo, Consolas, monospace" font-size="13.5" font-weight="600" fill="#c9bafd">SRS pool — once per session</text><text x="76" y="139" font-family="-apple-system, BlinkMacSystemFont, 'Segoe UI', Roboto, Helvetica, Arial, sans-serif" font-size="11" fill="#9aa4b2">convert_points_only</text><text x="76" y="155" font-family="-apple-system, BlinkMacSystemFont, 'Segoe UI', Roboto, Helvetica, Arial, sans-serif" font-size="11" fill="#9aa4b2">canonical → 8×u32 Montgomery poolX/poolY</text><rect x="60" y="210" width="320" height="150" rx="14" fill="#271e10" fill-opacity="0.32" stroke="#f5b544" stroke-dasharray="6 5"/><text x="76" y="232" font-family="-apple-system, BlinkMacSystemFont, 'Segoe UI', Roboto, Helvetica, Arial, sans-serif" font-size="11.5" font-weight="700" letter-spacing="2" fill="#f5b544">PREPARE() — UNTIMED · IDENTITY-CACHED</text><rect x="78" y="244" width="284" height="54" rx="11" fill="#271e10" stroke="#f5b544" stroke-width="1.4"/><path d="M81,253 a6,6 0 0 1 5,-6 v48 a6,6 0 0 1 -5,-6 Z" fill="#f5b544"/><text x="94" y="269" font-family="ui-monospace, SFMono-Regular, Menlo, Consolas, monospace" font-size="13.5" font-weight="600" fill="#fbd38d">bucket_histogram</text><text x="94" y="287" font-family="-apple-system, BlinkMacSystemFont, 'Segoe UI', Roboto, Helvetica, Arial, sans-serif" font-size="11" fill="#9aa4b2">signed-Booth counts → host readback</text><rect x="78" y="306" width="284" height="44" rx="11" fill="#271e10" stroke="#f5b544" stroke-width="1.4"/><path d="M81,315 a6,6 0 0 1 5,-6 v38 a6,6 0 0 1 -5,-6 Z" fill="#f5b544"/><text x="94" y="333" font-family="ui-monospace, SFMono-Regular, Menlo, Consolas, monospace" font-size="13.5" font-weight="600" fill="#fbd38d">host per-level plan walk</text><path d="M220,298 L220,306" fill="none" stroke="#f5b544" stroke-width="1.9" stroke-linejoin="round" stroke-linecap="round" marker-end="url(#ahsf5b544)"/><rect x="446" y="210" width="396" height="720" rx="14" fill="#0e1c30" fill-opacity="0.32" stroke="#4b9fff" stroke-dasharray="6 5"/><text x="462" y="232" font-family="-apple-system, BlinkMacSystemFont, 'Segoe UI', Roboto, Helvetica, Arial, sans-serif" font-size="11.5" font-weight="700" letter-spacing="2" fill="#4b9fff">RUN() — TIMED · ONE SUBMIT</text><rect x="470" y="250" width="320" height="58" rx="11" fill="#0c2620" stroke="#34d399" stroke-width="1.4"/><path d="M473,259 a6,6 0 0 1 5,-6 v52 a6,6 0 0 1 -5,-6 Z" fill="#34d399"/><text x="486" y="275" font-family="ui-monospace, SFMono-Regular, Menlo, Consolas, monospace" font-size="13.5" font-weight="600" fill="#7be9c0">decompose_scalars_booth</text><text x="486" y="293" font-family="-apple-system, BlinkMacSystemFont, 'Segoe UI', Roboto, Helvetica, Arial, sans-serif" font-size="11" fill="#9aa4b2">carry-free signed-Booth · bucket+sign / pair</text><rect x="462" y="340" width="336" height="92" rx="14" fill="#12161f" fill-opacity="0.32" stroke="#5a6683" stroke-dasharray="6 5"/><text x="478" y="362" font-family="-apple-system, BlinkMacSystemFont, 'Segoe UI', Roboto, Helvetica, Arial, sans-serif" font-size="11.5" font-weight="700" letter-spacing="2" fill="#5a6683">TRANSPOSE — TILED COUNTING SORT</text><rect x="474" y="374" width="70.5" height="44" rx="11" fill="#0c2620" stroke="#34d399" stroke-width="1.4"/><text x="509.25" y="401" text-anchor="middle" font-family="ui-monospace, SFMono-Regular, Menlo, Consolas, monospace" font-size="11.5" font-weight="600" fill="#7be9c0">count</text><rect x="554.5" y="374" width="70.5" height="44" rx="11" fill="#0c2620" stroke="#34d399" stroke-width="1.4"/><text x="589.75" y="401" text-anchor="middle" font-family="ui-monospace, SFMono-Regular, Menlo, Consolas, monospace" font-size="11.5" font-weight="600" fill="#7be9c0">reduce</text><rect x="635" y="374" width="70.5" height="44" rx="11" fill="#0c2620" stroke="#34d399" stroke-width="1.4"/><text x="670.25" y="401" text-anchor="middle" font-family="ui-monospace, SFMono-Regular, Menlo, Consolas, monospace" font-size="11.5" font-weight="600" fill="#7be9c0">scan</text><rect x="715.5" y="374" width="70.5" height="44" rx="11" fill="#0c2620" stroke="#34d399" stroke-width="1.4"/><text x="750.75" y="401" text-anchor="middle" font-family="ui-monospace, SFMono-Regular, Menlo, Consolas, monospace" font-size="11.5" font-weight="600" fill="#7be9c0">scatter</text><path d="M544.5,396 L554.5,396" fill="none" stroke="#34d399" stroke-width="1.6" stroke-linejoin="round" stroke-linecap="round" marker-end="url(#ahs34d399)"/><path d="M625,396 L635,396" fill="none" stroke="#34d399" stroke-width="1.6" stroke-linejoin="round" stroke-linecap="round" marker-end="url(#ahs34d399)"/><path d="M705.5,396 L715.5,396" fill="none" stroke="#34d399" stroke-width="1.6" stroke-linejoin="round" stroke-linecap="round" marker-end="url(#ahs34d399)"/><rect x="470" y="464" width="320" height="58" rx="11" fill="#0c2620" stroke="#34d399" stroke-width="1.4"/><path d="M473,473 a6,6 0 0 1 5,-6 v52 a6,6 0 0 1 -5,-6 Z" fill="#34d399"/><text x="486" y="489" font-family="ui-monospace, SFMono-Regular, Menlo, Consolas, monospace" font-size="13.5" font-weight="600" fill="#7be9c0">csr_to_v2</text><text x="486" y="507" font-family="-apple-system, BlinkMacSystemFont, 'Segoe UI', Roboto, Helvetica, Arial, sans-serif" font-size="11" fill="#9aa4b2">active_sums (bucket-major) + planner meta</text><rect x="462" y="554" width="336" height="196" rx="14" fill="#12161f" fill-opacity="0.32" stroke="#5a6683" stroke-dasharray="6 5"/><text x="478" y="576" font-family="-apple-system, BlinkMacSystemFont, 'Segoe UI', Roboto, Helvetica, Arial, sans-serif" font-size="11.5" font-weight="700" letter-spacing="2" fill="#5a6683">PAIR-TREE BUCKET ACCUMULATE — PER LEVEL</text><rect x="478" y="588" width="304" height="46" rx="11" fill="#0c2620" stroke="#34d399" stroke-width="1.4"/><path d="M481,597 a6,6 0 0 1 5,-6 v40 a6,6 0 0 1 -5,-6 Z" fill="#34d399"/><text x="494" y="613" font-family="ui-monospace, SFMono-Regular, Menlo, Consolas, monospace" font-size="13.5" font-weight="600" fill="#7be9c0">planner: offsets + emit</text><text x="494" y="631" font-family="-apple-system, BlinkMacSystemFont, 'Segoe UI', Roboto, Helvetica, Arial, sans-serif" font-size="11" fill="#9aa4b2">bin-pack pairs</text><rect x="478" y="644" width="304" height="48" rx="11" fill="#0c2620" stroke="#34d399" stroke-width="1.4"/><path d="M481,653 a6,6 0 0 1 5,-6 v42 a6,6 0 0 1 -5,-6 Z" fill="#34d399"/><text x="494" y="669" font-family="ui-monospace, SFMono-Regular, Menlo, Consolas, monospace" font-size="13.5" font-weight="600" fill="#7be9c0">ba_fused_super</text><text x="494" y="687" font-family="-apple-system, BlinkMacSystemFont, 'Segoe UI', Roboto, Helvetica, Arial, sans-serif" font-size="11" fill="#9aa4b2">batch affine-add · 1 inverse / S pairs</text><rect x="478" y="702" width="304" height="34" rx="11" fill="#0c2620" stroke="#34d399" stroke-width="1.4"/><path d="M481,711 a6,6 0 0 1 5,-6 v28 a6,6 0 0 1 -5,-6 Z" fill="#34d399"/><text x="494" y="724" font-family="ui-monospace, SFMono-Regular, Menlo, Consolas, monospace" font-size="12.5" font-weight="600" fill="#7be9c0">carry_copy + finalize</text><path d="M630,634 L630,644" fill="none" stroke="#34d399" stroke-width="1.6" stroke-linejoin="round" stroke-linecap="round" marker-end="url(#ahs34d399)"/><path d="M630,692 L630,702" fill="none" stroke="#34d399" stroke-width="1.6" stroke-linejoin="round" stroke-linecap="round" marker-end="url(#ahs34d399)"/><path d="M478,668 L452,668 L452,611 L478,611" fill="none" stroke="#8aa0c0" stroke-width="1.6" stroke-linejoin="round" stroke-linecap="round" marker-end="url(#ahs8aa0c0)"/><rect x="386.48" y="630" width="67.03999999999999" height="19" rx="9" fill="#0b0e14" stroke="#212a39"/><text x="420" y="643.3" font-family="-apple-system, BlinkMacSystemFont, 'Segoe UI', Roboto, Helvetica, Arial, sans-serif" font-size="11" fill="#9aa4b2" text-anchor="middle">× levels</text><rect x="470" y="782" width="320" height="58" rx="11" fill="#0c2620" stroke="#34d399" stroke-width="1.4"/><path d="M473,791 a6,6 0 0 1 5,-6 v52 a6,6 0 0 1 -5,-6 Z" fill="#34d399"/><text x="486" y="807" font-family="ui-monospace, SFMono-Regular, Menlo, Consolas, monospace" font-size="13.5" font-weight="600" fill="#7be9c0">reduce_init + reduce_level</text><text x="486" y="825" font-family="-apple-system, BlinkMacSystemFont, 'Segoe UI', Roboto, Helvetica, Arial, sans-serif" font-size="11" fill="#9aa4b2">branchless per-window suffix sum  Σ k·Bₖ</text><rect x="470" y="872" width="320" height="46" rx="11" fill="#0e1c30" stroke="#4b9fff" stroke-width="1.4"/><path d="M473,881 a6,6 0 0 1 5,-6 v40 a6,6 0 0 1 -5,-6 Z" fill="#4b9fff"/><text x="486" y="900" font-family="ui-monospace, SFMono-Regular, Menlo, Consolas, monospace" font-size="13.5" font-weight="600" fill="#a9ccff">gather window sums → staging</text><path d="M630,308 L630,340" fill="none" stroke="#34d399" stroke-width="1.9" stroke-linejoin="round" stroke-linecap="round" marker-end="url(#ahs34d399)"/><path d="M630,432 L630,464" fill="none" stroke="#34d399" stroke-width="1.9" stroke-linejoin="round" stroke-linecap="round" marker-end="url(#ahs34d399)"/><path d="M630,522 L630,554" fill="none" stroke="#34d399" stroke-width="1.9" stroke-linejoin="round" stroke-linecap="round" marker-end="url(#ahs34d399)"/><path d="M630,750 L630,782" fill="none" stroke="#34d399" stroke-width="1.9" stroke-linejoin="round" stroke-linecap="round" marker-end="url(#ahs34d399)"/><path d="M630,840 L630,872" fill="none" stroke="#34d399" stroke-width="1.9" stroke-linejoin="round" stroke-linecap="round" marker-end="url(#ahs34d399)"/><path d="M380,135 L470,279" fill="none" stroke="#a78bfa" stroke-width="1.9" stroke-linejoin="round" stroke-linecap="round" stroke-dasharray="6 4" marker-end="url(#ahsa78bfa)"/><rect x="385.1" y="195.5" width="79.8" height="19" rx="9" fill="#0b0e14" stroke="#212a39"/><text x="425" y="208.8" font-family="-apple-system, BlinkMacSystemFont, 'Segoe UI', Roboto, Helvetica, Arial, sans-serif" font-size="11" fill="#9aa4b2" text-anchor="middle">SRS points</text><path d="M362,328 L470,279" fill="none" stroke="#f5b544" stroke-width="1.9" stroke-linejoin="round" stroke-linecap="round" stroke-dasharray="6 4" marker-end="url(#ahsf5b544)"/><rect x="389.24" y="290.5" width="41.519999999999996" height="19" rx="9" fill="#0b0e14" stroke="#212a39"/><text x="410" y="303.8" font-family="-apple-system, BlinkMacSystemFont, 'Segoe UI', Roboto, Helvetica, Arial, sans-serif" font-size="11" fill="#9aa4b2" text-anchor="middle">plan</text><rect x="410" y="942" width="440" height="62" rx="11" fill="#0e1c30" stroke="#4b9fff" stroke-width="1.4"/><path d="M413,951 a6,6 0 0 1 5,-6 v56 a6,6 0 0 1 -5,-6 Z" fill="#4b9fff"/><text x="426" y="967" font-family="ui-monospace, SFMono-Regular, Menlo, Consolas, monospace" font-size="13.5" font-weight="600" fill="#a9ccff">combine_windows — native bb::g1</text><text x="426" y="985" font-family="-apple-system, BlinkMacSystemFont, 'Segoe UI', Roboto, Helvetica, Arial, sans-serif" font-size="11" fill="#9aa4b2">Horner fold  S = Σⱼ Wⱼ · 2^(j·c)  in inversion-free Jacobian</text><path d="M630,918 L630,942" fill="none" stroke="#4b9fff" stroke-width="1.9" stroke-linejoin="round" stroke-linecap="round" marker-end="url(#ahs4b9fff)"/><rect x="862" y="210" width="286" height="300" rx="14" fill="#12161f" fill-opacity="0.32" stroke="#5a6683" stroke-dasharray="6 5"/><text x="878" y="232" font-family="-apple-system, BlinkMacSystemFont, 'Segoe UI', Roboto, Helvetica, Arial, sans-serif" font-size="11.5" font-weight="700" letter-spacing="2" fill="#5a6683">FIELD ARITHMETIC</text><circle cx="878" cy="248" r="3.5" fill="#34d399"/><text x="894" y="252" font-family="ui-monospace, SFMono-Regular, Menlo, Consolas, monospace" font-size="12.5" font-weight="600" fill="#c3ccdb" text-anchor="start">20 × 13-bit limbs</text><text x="894" y="268" font-family="-apple-system, BlinkMacSystemFont, 'Segoe UI', Roboto, Helvetica, Arial, sans-serif" font-size="11" font-weight="400" fill="#9aa4b2" text-anchor="start">canonical Fp · Barrett in point-convert only</text><circle cx="878" cy="300" r="3.5" fill="#34d399"/><text x="894" y="304" font-family="ui-monospace, SFMono-Regular, Menlo, Consolas, monospace" font-size="12.5" font-weight="600" fill="#c3ccdb" text-anchor="start">8 × u32 “live form”</text><text x="894" y="320" font-family="-apple-system, BlinkMacSystemFont, 'Segoe UI', Roboto, Helvetica, Arial, sans-serif" font-size="11" font-weight="400" fill="#9aa4b2" text-anchor="start">inside fused / reduce kernels</text><circle cx="878" cy="352" r="3.5" fill="#34d399"/><text x="894" y="356" font-family="ui-monospace, SFMono-Regular, Menlo, Consolas, monospace" font-size="12.5" font-weight="600" fill="#c3ccdb" text-anchor="start">Karatsuba + Yuval</text><text x="894" y="372" font-family="-apple-system, BlinkMacSystemFont, 'Segoe UI', Roboto, Helvetica, Arial, sans-serif" font-size="11" font-weight="400" fill="#9aa4b2" text-anchor="start">register-light Montgomery multiply</text><circle cx="878" cy="404" r="3.5" fill="#34d399"/><text x="894" y="408" font-family="ui-monospace, SFMono-Regular, Menlo, Consolas, monospace" font-size="12.5" font-weight="600" fill="#c3ccdb" text-anchor="start">safegcd (pk)</text><text x="894" y="424" font-family="-apple-system, BlinkMacSystemFont, 'Segoe UI', Roboto, Helvetica, Arial, sans-serif" font-size="11" font-weight="400" fill="#9aa4b2" text-anchor="start">Bernstein–Yang inverse · 1 per S-pair block</text><circle cx="878" cy="456" r="3.5" fill="#34d399"/><text x="894" y="460" font-family="ui-monospace, SFMono-Regular, Menlo, Consolas, monospace" font-size="12.5" font-weight="600" fill="#c3ccdb" text-anchor="start">Montgomery batched</text><text x="894" y="476" font-family="-apple-system, BlinkMacSystemFont, 'Segoe UI', Roboto, Helvetica, Arial, sans-serif" font-size="11" font-weight="400" fill="#9aa4b2" text-anchor="start">prefix-product → 1 inverse amortized</text><rect x="862" y="528" width="286" height="402" rx="14" fill="#12161f" fill-opacity="0.32" stroke="#5a6683" stroke-dasharray="6 5"/><text x="878" y="550" font-family="-apple-system, BlinkMacSystemFont, 'Segoe UI', Roboto, Helvetica, Arial, sans-serif" font-size="11.5" font-weight="700" letter-spacing="2" fill="#5a6683">LIFECYCLE · CACHING</text><circle cx="878" cy="572" r="3.5" fill="#4b9fff"/><text x="894" y="576" font-family="ui-monospace, SFMono-Regular, Menlo, Consolas, monospace" font-size="12.5" font-weight="600" fill="#c3ccdb" text-anchor="start">MsmV2Pool.create()</text><text x="894" y="592" font-family="-apple-system, BlinkMacSystemFont, 'Segoe UI', Roboto, Helvetica, Arial, sans-serif" font-size="11" font-weight="400" fill="#9aa4b2" text-anchor="start">SRS upload + Montgomery convert, once</text><circle cx="878" cy="646" r="3.5" fill="#4b9fff"/><text x="894" y="650" font-family="ui-monospace, SFMono-Regular, Menlo, Consolas, monospace" font-size="12.5" font-weight="600" fill="#c3ccdb" text-anchor="start">MsmV2.create(n)</text><text x="894" y="666" font-family="-apple-system, BlinkMacSystemFont, 'Segoe UI', Roboto, Helvetica, Arial, sans-serif" font-size="11" font-weight="400" fill="#9aa4b2" text-anchor="start">compile ~17 pipelines (cached)</text><circle cx="878" cy="720" r="3.5" fill="#4b9fff"/><text x="894" y="724" font-family="ui-monospace, SFMono-Regular, Menlo, Consolas, monospace" font-size="12.5" font-weight="600" fill="#c3ccdb" text-anchor="start">prepare()</text><text x="894" y="740" font-family="-apple-system, BlinkMacSystemFont, 'Segoe UI', Roboto, Helvetica, Arial, sans-serif" font-size="11" font-weight="400" fill="#9aa4b2" text-anchor="start">histogram + plan · ~1 ms fast / ~150 ms slow</text><circle cx="878" cy="794" r="3.5" fill="#4b9fff"/><text x="894" y="798" font-family="ui-monospace, SFMono-Regular, Menlo, Consolas, monospace" font-size="12.5" font-weight="600" fill="#c3ccdb" text-anchor="start">run()</text><text x="894" y="814" font-family="-apple-system, BlinkMacSystemFont, 'Segoe UI', Roboto, Helvetica, Arial, sans-serif" font-size="11" font-weight="400" fill="#9aa4b2" text-anchor="start">encode → submit → mapAsync → combine</text></svg>